<svg xmlns="http://www.w3.org/2000/svg" viewBox="0 0 1024 1024" width="1024" height="1024">
  <defs>
    <!-- Richer green with depth -->
    <linearGradient id="bg" x1="0.2" y1="0" x2="0.8" y2="1">
      <stop offset="0%" stop-color="#8CE830"/>
      <stop offset="50%" stop-color="#5CC808"/>
      <stop offset="100%" stop-color="#3CA200"/>
    </linearGradient>
    <radialGradient id="amb" cx="0.25" cy="0.1" r="0.75">
      <stop offset="0%" stop-color="#BEFF6E" stop-opacity="0.3"/>
      <stop offset="100%" stop-opacity="0"/>
    </radialGradient>
    <!-- Frosted glass bubble -->
    <linearGradient id="frost" x1="0.15" y1="0" x2="0.75" y2="1">
      <stop offset="0%" stop-color="#FFFFFF" stop-opacity="0.95"/>
      <stop offset="60%" stop-color="#F4F6F9" stop-opacity="0.9"/>
      <stop offset="100%" stop-color="#E6EAF0" stop-opacity="0.88"/>
    </linearGradient>
    <linearGradient id="frostHi" x1="0.5" y1="0" x2="0.5" y2="0.45">
      <stop offset="0%" stop-color="#FFFFFF" stop-opacity="0.65"/>
      <stop offset="100%" stop-color="#FFFFFF" stop-opacity="0"/>
    </linearGradient>
    <!-- Border ring for glass -->
    <linearGradient id="ring" x1="0" y1="0" x2="0" y2="1">
      <stop offset="0%" stop-color="#FFFFFF" stop-opacity="0.5"/>
      <stop offset="100%" stop-color="#FFFFFF" stop-opacity="0.1"/>
    </linearGradient>
    <linearGradient id="tg" x1="0" y1="0" x2="0" y2="1">
      <stop offset="0%" stop-color="#62D418"/>
      <stop offset="100%" stop-color="#38A200"/>
    </linearGradient>
    <radialGradient id="ew" cx="0.43" cy="0.38" r="0.55">
      <stop offset="0%" stop-color="#FFF"/>
      <stop offset="100%" stop-color="#E4E8EE"/>
    </radialGradient>
    <radialGradient id="pu" cx="0.38" cy="0.3" r="0.6">
      <stop offset="0%" stop-color="#282848"/>
      <stop offset="100%" stop-color="#0C0C1C"/>
    </radialGradient>
    <filter id="bsh">
      <feGaussianBlur in="SourceAlpha" stdDeviation="24"/>
      <feOffset dy="16"/>
      <feColorMatrix values="0 0 0 0 0.08 0 0 0 0 0.25 0 0 0 0 0 0 0 0 0.3 0"/>
      <feMerge><feMergeNode/><feMergeNode in="SourceGraphic"/></feMerge>
    </filter>
    <filter id="esh">
      <feGaussianBlur in="SourceAlpha" stdDeviation="7"/>
      <feOffset dy="3.5"/>
      <feColorMatrix values="0 0 0 0 0 0 0 0 0 0 0 0 0 0 0 0 0 0 0.1 0"/>
      <feMerge><feMergeNode/><feMergeNode in="SourceGraphic"/></feMerge>
    </filter>
    <filter id="tsh">
      <feGaussianBlur in="SourceAlpha" stdDeviation="2"/>
      <feOffset dy="3.5"/>
      <feColorMatrix values="0 0 0 0 0.08 0 0 0 0 0.25 0 0 0 0 0 0 0 0 0.3 0"/>
      <feMerge><feMergeNode/><feMergeNode in="SourceGraphic"/></feMerge>
    </filter>
    <!-- Liquid blob accent -->
    <filter id="liq">
      <feGaussianBlur stdDeviation="6"/>
    </filter>
  </defs>

  <rect width="1024" height="1024" rx="224" fill="url(#bg)"/>
  <rect width="1024" height="1024" rx="224" fill="url(#amb)"/>

  <!-- Frosted glass bubble with border ring -->
  <g filter="url(#bsh)" transform="rotate(1.8, 505, 345)">
    <rect x="162" y="104" width="700" height="452" rx="104" fill="url(#frost)" stroke="url(#ring)" stroke-width="1.5"/>
    <!-- Organic tail -->
    <path d="M 575 556 C 590 596, 630 640, 665 665 C 640 630, 624 580, 625 556 Z" fill="url(#frost)"/>
  </g>
  <!-- Glass highlight -->
  <rect x="198" y="120" width="626" height="170" rx="88" fill="url(#frostHi)" opacity="0.5" transform="rotate(1.8, 505, 345)"/>

  <!-- Text -->
  <g transform="rotate(1.8, 505, 345)" filter="url(#tsh)">
    <text x="512" y="418" text-anchor="middle"
          font-family="'SF Pro Rounded','SF Pro Display','-apple-system','Nunito','Inter','Helvetica Neue',sans-serif"
          font-weight="800" font-size="205" fill="url(#tg)" letter-spacing="6">YORO</text>
  </g>

  <!-- Refined eyes -->
  <g filter="url(#esh)">
    <ellipse cx="384" cy="800" rx="52" ry="54" fill="url(#ew)"/>
    <ellipse cx="396" cy="796" rx="26" ry="28" fill="url(#pu)"/>
    <circle cx="406" cy="786" r="10.5" fill="#FFF"/>
    <circle cx="394" cy="806" r="4" fill="#FFF" opacity="0.4"/>

    <ellipse cx="624" cy="800" rx="52" ry="54" fill="url(#ew)"/>
    <ellipse cx="636" cy="796" rx="26" ry="28" fill="url(#pu)"/>
    <circle cx="646" cy="786" r="10.5" fill="#FFF"/>
    <circle cx="634" cy="806" r="4" fill="#FFF" opacity="0.4"/>
  </g>

  <!-- Minimal brows -->
  <path d="M 342 760 Q 384 748, 426 756" stroke="#349600" stroke-width="4.5" fill="none" stroke-linecap="round" opacity="0.24"/>
  <path d="M 578 756 Q 624 748, 666 760" stroke="#349600" stroke-width="4.5" fill="none" stroke-linecap="round" opacity="0.24"/>

  <!-- Soft smile -->
  <path d="M 462 846 Q 504 868, 546 846" stroke="#349600" stroke-width="5" fill="none" stroke-linecap="round" opacity="0.28"/>

  <!-- Liquid blob accents (Apple liquid feel) -->
  <circle cx="114" cy="190" r="22" fill="#B8FF58" opacity="0.18" filter="url(#liq)"/>
  <circle cx="910" cy="220" r="18" fill="#B8FF58" opacity="0.14" filter="url(#liq)"/>
  <circle cx="140" cy="860" r="14" fill="#FFFFFF" opacity="0.1" filter="url(#liq)"/>
  <circle cx="890" cy="840" r="16" fill="#FFFFFF" opacity="0.08" filter="url(#liq)"/>
</svg>
