<svg xmlns="http://www.w3.org/2000/svg" viewBox="0 0 1024 1024" width="1024" height="1024">
<defs>
<linearGradient id="bg" x1="0.1" y1="0" x2="0.9" y2="1"><stop offset="0%" stop-color="#8AE832"/><stop offset="100%" stop-color="#38A400"/></linearGradient>
<linearGradient id="gl" x1="0.1" y1="0" x2="0.7" y2="1"><stop offset="0%" stop-color="#FFF" stop-opacity="0.86"/><stop offset="100%" stop-color="#ECF0F6" stop-opacity="0.74"/></linearGradient>
<linearGradient id="glBd" x1="0" y1="0" x2="0" y2="1"><stop offset="0%" stop-color="#FFF" stop-opacity="0.55"/><stop offset="100%" stop-color="#FFF" stop-opacity="0.1"/></linearGradient>
<linearGradient id="glHi" x1="0.5" y1="0" x2="0.5" y2="0.35"><stop offset="0%" stop-color="#FFF" stop-opacity="0.6"/><stop offset="100%" stop-color="#FFF" stop-opacity="0"/></linearGradient>
<radialGradient id="pu" cx="0.36" cy="0.28" r="0.5"><stop offset="0%" stop-color="#32325A"/><stop offset="100%" stop-color="#0E0E1E"/></radialGradient>
<filter id="sh"><feGaussianBlur in="SourceAlpha" stdDeviation="20"/><feOffset dy="14"/><feColorMatrix values="0 0 0 0 0.05 0 0 0 0 0.18 0 0 0 0 0 0 0 0 0.26 0"/><feMerge><feMergeNode/><feMergeNode in="SourceGraphic"/></feMerge></filter>
<filter id="glow"><feGaussianBlur stdDeviation="10"/></filter>
<filter id="tsh"><feGaussianBlur in="SourceAlpha" stdDeviation="1.5"/><feOffset dy="2"/><feColorMatrix values="0 0 0 0 0.05 0 0 0 0 0.18 0 0 0 0 0 0 0 0 0.2 0"/><feMerge><feMergeNode/><feMergeNode in="SourceGraphic"/></feMerge></filter>
</defs>
<rect width="1024" height="1024" rx="224" fill="url(#bg)"/>
<circle cx="260" cy="220" r="100" fill="#A4F048" opacity="0.15" filter="url(#glow)"/>
<circle cx="780" cy="760" r="80" fill="#48C000" opacity="0.1" filter="url(#glow)"/>
<g filter="url(#sh)">
<rect x="162" y="122" width="700" height="550" rx="186" fill="url(#gl)" stroke="url(#glBd)" stroke-width="2"/>
</g>
<rect x="200" y="140" width="624" height="185" rx="145" fill="url(#glHi)" opacity="0.38"/>
<ellipse cx="400" cy="380" rx="66" ry="72" fill="#FFF" opacity="0.88"/>
<ellipse cx="416" cy="378" rx="40" ry="44" fill="url(#pu)"/>
<circle cx="430" cy="360" r="16" fill="#FFF"/>
<ellipse cx="624" cy="380" rx="66" ry="72" fill="#FFF" opacity="0.88"/>
<ellipse cx="640" cy="378" rx="40" ry="44" fill="url(#pu)"/>
<circle cx="654" cy="360" r="16" fill="#FFF"/>
<ellipse cx="334" cy="450" rx="28" ry="14" fill="#FFAB91" opacity="0.25"/>
<ellipse cx="690" cy="450" rx="28" ry="14" fill="#FFAB91" opacity="0.25"/>
<path d="M 462 482 Q 512 524 562 482" stroke="#1A3A00" stroke-width="5.5" fill="none" stroke-linecap="round" opacity="0.2"/>
<text x="512" y="880" text-anchor="middle" font-family="'SF Pro Rounded','-apple-system','Nunito',sans-serif" font-weight="600" font-size="130" fill="#FFF" letter-spacing="16" opacity="0.85" filter="url(#tsh)">yoro</text>
</svg>
