ply
format ascii 1.0
element vertex 2520
property float x
property float y
property float z
property uchar red
property uchar green
property uchar blue
end_header
2.8639 0.0000 0.0000 207 207 207
2.8635 0.0404 0.0000 207 207 207
2.8625 0.0808 0.0000 207 207 207
2.8607 0.1211 0.0000 207 207 207
2.8582 0.1614 0.0000 207 207 207
2.8551 0.2017 0.0000 207 207 207
2.8512 0.2419 0.0000 207 207 207
2.8466 0.2820 0.0000 207 207 207
2.8414 0.3220 0.0000 207 207 207
2.8354 0.3620 0.0000 207 207 207
2.8287 0.4018 0.0000 207 207 207
2.8214 0.4415 0.0000 207 207 207
2.8133 0.4811 0.0000 207 207 207
2.8046 0.5205 0.0000 207 207 207
2.7951 0.5598 0.0000 207 207 207
2.7850 0.5989 0.0000 207 207 207
2.7742 0.6378 0.0000 207 207 207
2.7628 0.6765 0.0000 207 207 207
2.7506 0.7150 0.0000 207 207 207
2.7378 0.7533 0.0000 207 207 207
2.7243 0.7914 0.0000 207 207 207
2.7102 0.8292 0.0000 207 207 207
2.6954 0.8668 0.0000 207 207 207
2.6799 0.9041 0.0000 207 207 207
2.6638 0.9411 0.0000 207 207 207
2.6471 0.9779 0.0000 207 207 207
2.6297 1.0143 0.0000 207 207 207
2.6117 1.0505 0.0000 207 207 207
2.5930 1.0863 0.0000 207 207 207
2.5738 1.1218 0.0000 207 207 207
2.5539 1.1569 0.0000 207 207 207
2.5334 1.1917 0.0000 207 207 207
2.5123 1.2262 0.0000 207 207 207
2.4906 1.2602 0.0000 207 207 207
2.4683 1.2939 0.0000 207 207 207
2.4454 1.3272 0.0000 207 207 207
2.4220 1.3601 0.0000 207 207 207
2.3979 1.3925 0.0000 207 207 207
2.3734 1.4246 0.0000 207 207 207
2.3482 1.4562 0.0000 207 207 207
2.3225 1.4873 0.0000 207 207 207
2.2963 1.5180 0.0000 207 207 207
2.2695 1.5483 0.0000 207 207 207
2.2423 1.5781 0.0000 207 207 207
2.2145 1.6074 0.0000 207 207 207
2.1862 1.6362 0.0000 207 207 207
2.1574 1.6645 0.0000 207 207 207
2.1281 1.6923 0.0000 207 207 207
2.0983 1.7195 0.0000 207 207 207
2.0680 1.7463 0.0000 207 207 207
2.0373 1.7725 0.0000 207 207 207
2.0062 1.7982 0.0000 207 207 207
1.9746 1.8234 0.0000 207 207 207
1.9425 1.8479 0.0000 207 207 207
1.9101 1.8720 0.0000 207 207 207
1.8772 1.8954 0.0000 207 207 207
1.8439 1.9183 0.0000 207 207 207
1.8102 1.9406 0.0000 207 207 207
1.7762 1.9623 0.0000 207 207 207
1.7417 1.9834 0.0000 207 207 207
1.7069 2.0039 0.0000 207 207 207
1.6718 2.0238 0.0000 207 207 207
1.6363 2.0430 0.0000 207 207 207
1.6005 2.0617 0.0000 207 207 207
1.5643 2.0797 0.0000 207 207 207
1.5279 2.0971 0.0000 207 207 207
1.4911 2.1138 0.0000 207 207 207
1.4541 2.1299 0.0000 207 207 207
1.4168 2.1454 0.0000 207 207 207
1.3792 2.1602 0.0000 207 207 207
1.3414 2.1743 0.0000 207 207 207
1.3033 2.1878 0.0000 207 207 207
1.2650 2.2006 0.0000 207 207 207
1.2265 2.2128 0.0000 207 207 207
1.1878 2.2242 0.0000 207 207 207
1.1489 2.2350 0.0000 207 207 207
1.1098 2.2451 0.0000 207 207 207
1.0705 2.2546 0.0000 207 207 207
1.0311 2.2633 0.0000 207 207 207
0.9915 2.2714 0.0000 207 207 207
0.9518 2.2787 0.0000 207 207 207
0.9120 2.2854 0.0000 207 207 207
0.8720 2.2914 0.0000 207 207 207
0.8320 2.2966 0.0000 207 207 207
0.7919 2.3012 0.0000 207 207 207
0.7517 2.3051 0.0000 207 207 207
0.7114 2.3082 0.0000 207 207 207
0.6711 2.3107 0.0000 207 207 207
0.6308 2.3125 0.0000 207 207 207
0.5904 2.3135 0.0000 207 207 207
0.5500 2.3139 0.0000 207 207 207
0.5096 2.3135 0.0000 207 207 207
0.4692 2.3125 0.0000 207 207 207
0.4289 2.3107 0.0000 207 207 207
0.3886 2.3082 0.0000 207 207 207
0.3483 2.3051 0.0000 207 207 207
0.3081 2.3012 0.0000 207 207 207
0.2680 2.2966 0.0000 207 207 207
0.2280 2.2914 0.0000 207 207 207
0.1880 2.2854 0.0000 207 207 207
0.1482 2.2787 0.0000 207 207 207
0.1085 2.2714 0.0000 207 207 207
0.0689 2.2633 0.0000 207 207 207
0.0295 2.2546 0.0000 207 207 207
-0.0098 2.2451 0.0000 207 207 207
-0.0489 2.2350 0.0000 207 207 207
-0.0878 2.2242 0.0000 207 207 207
-0.1265 2.2128 0.0000 207 207 207
-0.1650 2.2006 0.0000 207 207 207
-0.2033 2.1878 0.0000 207 207 207
-0.2414 2.1743 0.0000 207 207 207
-0.2792 2.1602 0.0000 207 207 207
-0.3168 2.1454 0.0000 207 207 207
-0.3541 2.1299 0.0000 207 207 207
-0.3911 2.1138 0.0000 207 207 207
-0.4279 2.0971 0.0000 207 207 207
-0.4643 2.0797 0.0000 207 207 207
-0.5005 2.0617 0.0000 207 207 207
-0.5363 2.0430 0.0000 207 207 207
-0.5718 2.0238 0.0000 207 207 207
-0.6069 2.0039 0.0000 207 207 207
-0.6417 1.9834 0.0000 207 207 207
-0.6762 1.9623 0.0000 207 207 207
-0.7102 1.9406 0.0000 207 207 207
-0.7439 1.9183 0.0000 207 207 207
-0.7772 1.8954 0.0000 207 207 207
-0.8101 1.8720 0.0000 207 207 207
-0.8425 1.8479 0.0000 207 207 207
-0.8746 1.8234 0.0000 207 207 207
-0.9062 1.7982 0.0000 207 207 207
-0.9373 1.7725 0.0000 207 207 207
-0.9680 1.7463 0.0000 207 207 207
-0.9983 1.7195 0.0000 207 207 207
-1.0281 1.6923 0.0000 207 207 207
-1.0574 1.6645 0.0000 207 207 207
-1.0862 1.6362 0.0000 207 207 207
-1.1145 1.6074 0.0000 207 207 207
-1.1423 1.5781 0.0000 207 207 207
-1.1695 1.5483 0.0000 207 207 207
-1.1963 1.5180 0.0000 207 207 207
-1.2225 1.4873 0.0000 207 207 207
-1.2482 1.4562 0.0000 207 207 207
-1.2734 1.4246 0.0000 207 207 207
-1.2979 1.3925 0.0000 207 207 207
-1.3220 1.3601 0.0000 207 207 207
-1.3454 1.3272 0.0000 207 207 207
-1.3683 1.2939 0.0000 207 207 207
-1.3906 1.2602 0.0000 207 207 207
-1.4123 1.2262 0.0000 207 207 207
-1.4334 1.1917 0.0000 207 207 207
-1.4539 1.1569 0.0000 207 207 207
-1.4738 1.1218 0.0000 207 207 207
-1.4930 1.0863 0.0000 207 207 207
-1.5117 1.0505 0.0000 207 207 207
-1.5297 1.0143 0.0000 207 207 207
-1.5471 0.9779 0.0000 207 207 207
-1.5638 0.9411 0.0000 207 207 207
-1.5799 0.9041 0.0000 207 207 207
-1.5954 0.8668 0.0000 207 207 207
-1.6102 0.8292 0.0000 207 207 207
-1.6243 0.7914 0.0000 207 207 207
-1.6378 0.7533 0.0000 207 207 207
-1.6506 0.7150 0.0000 207 207 207
-1.6628 0.6765 0.0000 207 207 207
-1.6742 0.6378 0.0000 207 207 207
-1.6850 0.5989 0.0000 207 207 207
-1.6951 0.5598 0.0000 207 207 207
-1.7046 0.5205 0.0000 207 207 207
-1.7133 0.4811 0.0000 207 207 207
-1.7214 0.4415 0.0000 207 207 207
-1.7287 0.4018 0.0000 207 207 207
-1.7354 0.3620 0.0000 207 207 207
-1.7414 0.3220 0.0000 207 207 207
-1.7466 0.2820 0.0000 207 207 207
-1.7512 0.2419 0.0000 207 207 207
-1.7551 0.2017 0.0000 207 207 207
-1.7582 0.1614 0.0000 207 207 207
-1.7607 0.1211 0.0000 207 207 207
-1.7625 0.0808 0.0000 207 207 207
-1.7635 0.0404 0.0000 207 207 207
-1.7639 0.0000 0.0000 207 207 207
-1.7635 -0.0404 0.0000 207 207 207
-1.7625 -0.0808 0.0000 207 207 207
-1.7607 -0.1211 0.0000 207 207 207
-1.7582 -0.1614 0.0000 207 207 207
-1.7551 -0.2017 0.0000 207 207 207
-1.7512 -0.2419 0.0000 207 207 207
-1.7466 -0.2820 0.0000 207 207 207
-1.7414 -0.3220 0.0000 207 207 207
-1.7354 -0.3620 0.0000 207 207 207
-1.7287 -0.4018 0.0000 207 207 207
-1.7214 -0.4415 0.0000 207 207 207
-1.7133 -0.4811 0.0000 207 207 207
-1.7046 -0.5205 0.0000 207 207 207
-1.6951 -0.5598 0.0000 207 207 207
-1.6850 -0.5989 0.0000 207 207 207
-1.6742 -0.6378 0.0000 207 207 207
-1.6628 -0.6765 0.0000 207 207 207
-1.6506 -0.7150 0.0000 207 207 207
-1.6378 -0.7533 0.0000 207 207 207
-1.6243 -0.7914 0.0000 207 207 207
-1.6102 -0.8292 0.0000 207 207 207
-1.5954 -0.8668 0.0000 207 207 207
-1.5799 -0.9041 0.0000 207 207 207
-1.5638 -0.9411 0.0000 207 207 207
-1.5471 -0.9779 0.0000 207 207 207
-1.5297 -1.0143 0.0000 207 207 207
-1.5117 -1.0505 0.0000 207 207 207
-1.4930 -1.0863 0.0000 207 207 207
-1.4738 -1.1218 0.0000 207 207 207
-1.4539 -1.1569 0.0000 207 207 207
-1.4334 -1.1917 0.0000 207 207 207
-1.4123 -1.2262 0.0000 207 207 207
-1.3906 -1.2602 0.0000 207 207 207
-1.3683 -1.2939 0.0000 207 207 207
-1.3454 -1.3272 0.0000 207 207 207
-1.3220 -1.3601 0.0000 207 207 207
-1.2979 -1.3925 0.0000 207 207 207
-1.2734 -1.4246 0.0000 207 207 207
-1.2482 -1.4562 0.0000 207 207 207
-1.2225 -1.4873 0.0000 207 207 207
-1.1963 -1.5180 0.0000 207 207 207
-1.1695 -1.5483 0.0000 207 207 207
-1.1423 -1.5781 0.0000 207 207 207
-1.1145 -1.6074 0.0000 207 207 207
-1.0862 -1.6362 0.0000 207 207 207
-1.0574 -1.6645 0.0000 207 207 207
-1.0281 -1.6923 0.0000 207 207 207
-0.9983 -1.7195 0.0000 207 207 207
-0.9680 -1.7463 0.0000 207 207 207
-0.9373 -1.7725 0.0000 207 207 207
-0.9062 -1.7982 0.0000 207 207 207
-0.8746 -1.8234 0.0000 207 207 207
-0.8425 -1.8479 0.0000 207 207 207
-0.8101 -1.8720 0.0000 207 207 207
-0.7772 -1.8954 0.0000 207 207 207
-0.7439 -1.9183 0.0000 207 207 207
-0.7102 -1.9406 0.0000 207 207 207
-0.6762 -1.9623 0.0000 207 207 207
-0.6417 -1.9834 0.0000 207 207 207
-0.6069 -2.0039 0.0000 207 207 207
-0.5718 -2.0238 0.0000 207 207 207
-0.5363 -2.0430 0.0000 207 207 207
-0.5005 -2.0617 0.0000 207 207 207
-0.4643 -2.0797 0.0000 207 207 207
-0.4279 -2.0971 0.0000 207 207 207
-0.3911 -2.1138 0.0000 207 207 207
-0.3541 -2.1299 0.0000 207 207 207
-0.3168 -2.1454 0.0000 207 207 207
-0.2792 -2.1602 0.0000 207 207 207
-0.2414 -2.1743 0.0000 207 207 207
-0.2033 -2.1878 0.0000 207 207 207
-0.1650 -2.2006 0.0000 207 207 207
-0.1265 -2.2128 0.0000 207 207 207
-0.0878 -2.2242 0.0000 207 207 207
-0.0489 -2.2350 0.0000 207 207 207
-0.0098 -2.2451 0.0000 207 207 207
0.0295 -2.2546 0.0000 207 207 207
0.0689 -2.2633 0.0000 207 207 207
0.1085 -2.2714 0.0000 207 207 207
0.1482 -2.2787 0.0000 207 207 207
0.1880 -2.2854 0.0000 207 207 207
0.2280 -2.2914 0.0000 207 207 207
0.2680 -2.2966 0.0000 207 207 207
0.3081 -2.3012 0.0000 207 207 207
0.3483 -2.3051 0.0000 207 207 207
0.3886 -2.3082 0.0000 207 207 207
0.4289 -2.3107 0.0000 207 207 207
0.4692 -2.3125 0.0000 207 207 207
0.5096 -2.3135 0.0000 207 207 207
0.5500 -2.3139 0.0000 207 207 207
0.5904 -2.3135 0.0000 207 207 207
0.6308 -2.3125 0.0000 207 207 207
0.6711 -2.3107 0.0000 207 207 207
0.7114 -2.3082 0.0000 207 207 207
0.7517 -2.3051 0.0000 207 207 207
0.7919 -2.3012 0.0000 207 207 207
0.8320 -2.2966 0.0000 207 207 207
0.8720 -2.2914 0.0000 207 207 207
0.9120 -2.2854 0.0000 207 207 207
0.9518 -2.2787 0.0000 207 207 207
0.9915 -2.2714 0.0000 207 207 207
1.0311 -2.2633 0.0000 207 207 207
1.0705 -2.2546 0.0000 207 207 207
1.1098 -2.2451 0.0000 207 207 207
1.1489 -2.2350 0.0000 207 207 207
1.1878 -2.2242 0.0000 207 207 207
1.2265 -2.2128 0.0000 207 207 207
1.2650 -2.2006 0.0000 207 207 207
1.3033 -2.1878 0.0000 207 207 207
1.3414 -2.1743 0.0000 207 207 207
1.3792 -2.1602 0.0000 207 207 207
1.4168 -2.1454 0.0000 207 207 207
1.4541 -2.1299 0.0000 207 207 207
1.4911 -2.1138 0.0000 207 207 207
1.5279 -2.0971 0.0000 207 207 207
1.5643 -2.0797 0.0000 207 207 207
1.6005 -2.0617 0.0000 207 207 207
1.6363 -2.0430 0.0000 207 207 207
1.6718 -2.0238 0.0000 207 207 207
1.7069 -2.0039 0.0000 207 207 207
1.7417 -1.9834 0.0000 207 207 207
1.7762 -1.9623 0.0000 207 207 207
1.8102 -1.9406 0.0000 207 207 207
1.8439 -1.9183 0.0000 207 207 207
1.8772 -1.8954 0.0000 207 207 207
1.9101 -1.8720 0.0000 207 207 207
1.9425 -1.8479 0.0000 207 207 207
1.9746 -1.8234 0.0000 207 207 207
2.0062 -1.7982 0.0000 207 207 207
2.0373 -1.7725 0.0000 207 207 207
2.0680 -1.7463 0.0000 207 207 207
2.0983 -1.7195 0.0000 207 207 207
2.1281 -1.6923 0.0000 207 207 207
2.1574 -1.6645 0.0000 207 207 207
2.1862 -1.6362 0.0000 207 207 207
2.2145 -1.6074 0.0000 207 207 207
2.2423 -1.5781 0.0000 207 207 207
2.2695 -1.5483 0.0000 207 207 207
2.2963 -1.5180 0.0000 207 207 207
2.3225 -1.4873 0.0000 207 207 207
2.3482 -1.4562 0.0000 207 207 207
2.3734 -1.4246 0.0000 207 207 207
2.3979 -1.3925 0.0000 207 207 207
2.4220 -1.3601 0.0000 207 207 207
2.4454 -1.3272 0.0000 207 207 207
2.4683 -1.2939 0.0000 207 207 207
2.4906 -1.2602 0.0000 207 207 207
2.5123 -1.2262 0.0000 207 207 207
2.5334 -1.1917 0.0000 207 207 207
2.5539 -1.1569 0.0000 207 207 207
2.5738 -1.1218 0.0000 207 207 207
2.5930 -1.0863 0.0000 207 207 207
2.6117 -1.0505 0.0000 207 207 207
2.6297 -1.0143 0.0000 207 207 207
2.6471 -0.9779 0.0000 207 207 207
2.6638 -0.9411 0.0000 207 207 207
2.6799 -0.9041 0.0000 207 207 207
2.6954 -0.8668 0.0000 207 207 207
2.7102 -0.8292 0.0000 207 207 207
2.7243 -0.7914 0.0000 207 207 207
2.7378 -0.7533 0.0000 207 207 207
2.7506 -0.7150 0.0000 207 207 207
2.7628 -0.6765 0.0000 207 207 207
2.7742 -0.6378 0.0000 207 207 207
2.7850 -0.5989 0.0000 207 207 207
2.7951 -0.5598 0.0000 207 207 207
2.8046 -0.5205 0.0000 207 207 207
2.8133 -0.4811 0.0000 207 207 207
2.8214 -0.4415 0.0000 207 207 207
2.8287 -0.4018 0.0000 207 207 207
2.8354 -0.3620 0.0000 207 207 207
2.8414 -0.3220 0.0000 207 207 207
2.8466 -0.2820 0.0000 207 207 207
2.8512 -0.2419 0.0000 207 207 207
2.8551 -0.2017 0.0000 207 207 207
2.8582 -0.1614 0.0000 207 207 207
2.8607 -0.1211 0.0000 207 207 207
2.8625 -0.0808 0.0000 207 207 207
2.8635 -0.0404 0.0000 207 207 207
3.2355 0.0000 0.0000 195 195 195
3.2351 0.0469 0.0000 195 195 195
3.2339 0.0937 0.0000 195 195 195
3.2318 0.1405 0.0000 195 195 195
3.2290 0.1873 0.0000 195 195 195
3.2253 0.2341 0.0000 195 195 195
3.2208 0.2807 0.0000 195 195 195
3.2155 0.3273 0.0000 195 195 195
3.2094 0.3738 0.0000 195 195 195
3.2025 0.4201 0.0000 195 195 195
3.1947 0.4663 0.0000 195 195 195
3.1862 0.5124 0.0000 195 195 195
3.1768 0.5583 0.0000 195 195 195
3.1667 0.6041 0.0000 195 195 195
3.1557 0.6497 0.0000 195 195 195
3.1440 0.6951 0.0000 195 195 195
3.1315 0.7402 0.0000 195 195 195
3.1182 0.7852 0.0000 195 195 195
3.1041 0.8299 0.0000 195 195 195
3.0892 0.8743 0.0000 195 195 195
3.0736 0.9185 0.0000 195 195 195
3.0571 0.9624 0.0000 195 195 195
3.0400 1.0060 0.0000 195 195 195
3.0220 1.0493 0.0000 195 195 195
3.0033 1.0923 0.0000 195 195 195
2.9839 1.1349 0.0000 195 195 195
2.9637 1.1773 0.0000 195 195 195
2.9428 1.2192 0.0000 195 195 195
2.9212 1.2608 0.0000 195 195 195
2.8988 1.3020 0.0000 195 195 195
2.8757 1.3428 0.0000 195 195 195
2.8519 1.3831 0.0000 195 195 195
2.8274 1.4231 0.0000 195 195 195
2.8023 1.4626 0.0000 195 195 195
2.7764 1.5017 0.0000 195 195 195
2.7498 1.5403 0.0000 195 195 195
2.7226 1.5785 0.0000 195 195 195
2.6947 1.6162 0.0000 195 195 195
2.6662 1.6534 0.0000 195 195 195
2.6370 1.6900 0.0000 195 195 195
2.6072 1.7262 0.0000 195 195 195
2.5768 1.7619 0.0000 195 195 195
2.5457 1.7970 0.0000 195 195 195
2.5141 1.8315 0.0000 195 195 195
2.4818 1.8655 0.0000 195 195 195
2.4489 1.8989 0.0000 195 195 195
2.4155 1.9318 0.0000 195 195 195
2.3815 1.9641 0.0000 195 195 195
2.3470 1.9957 0.0000 195 195 195
2.3119 2.0268 0.0000 195 195 195
2.2762 2.0572 0.0000 195 195 195
2.2400 2.0870 0.0000 195 195 195
2.2034 2.1162 0.0000 195 195 195
2.1662 2.1447 0.0000 195 195 195
2.1285 2.1726 0.0000 195 195 195
2.0903 2.1998 0.0000 195 195 195
2.0517 2.2264 0.0000 195 195 195
2.0126 2.2523 0.0000 195 195 195
1.9731 2.2774 0.0000 195 195 195
1.9331 2.3019 0.0000 195 195 195
1.8928 2.3257 0.0000 195 195 195
1.8520 2.3488 0.0000 195 195 195
1.8108 2.3712 0.0000 195 195 195
1.7692 2.3928 0.0000 195 195 195
1.7273 2.4137 0.0000 195 195 195
1.6849 2.4339 0.0000 195 195 195
1.6408 2.4500 0.0008 195 195 195
1.5900 2.4500 0.0055 196 196 196
1.5399 2.4500 0.0100 197 197 197
1.4905 2.4500 0.0141 197 197 197
1.4417 2.4500 0.0181 198 198 198
1.3936 2.4500 0.0218 198 198 198
1.3461 2.4500 0.0253 199 199 199
1.2990 2.4500 0.0285 199 199 199
1.2525 2.4500 0.0316 200 200 200
1.2065 2.4500 0.0344 200 200 200
1.1609 2.4500 0.0371 201 201 201
1.1156 2.4500 0.0395 201 201 201
1.0708 2.4500 0.0417 201 201 201
1.0262 2.4500 0.0438 201 201 201
0.9820 2.4500 0.0456 202 202 202
0.9380 2.4500 0.0473 202 202 202
0.8943 2.4500 0.0488 202 202 202
0.8508 2.4500 0.0501 202 202 202
0.8075 2.4500 0.0513 203 203 203
0.7643 2.4500 0.0522 203 203 203
0.7213 2.4500 0.0530 203 203 203
0.6784 2.4500 0.0536 203 203 203
0.6356 2.4500 0.0540 203 203 203
0.5928 2.4500 0.0543 203 203 203
0.5500 2.4500 0.0544 203 203 203
0.5072 2.4500 0.0543 203 203 203
0.4644 2.4500 0.0540 203 203 203
0.4216 2.4500 0.0536 203 203 203
0.3787 2.4500 0.0530 203 203 203
0.3357 2.4500 0.0522 203 203 203
0.2925 2.4500 0.0513 203 203 203
0.2492 2.4500 0.0501 202 202 202
0.2057 2.4500 0.0488 202 202 202
0.1620 2.4500 0.0473 202 202 202
0.1180 2.4500 0.0456 202 202 202
0.0738 2.4500 0.0438 201 201 201
0.0292 2.4500 0.0417 201 201 201
-0.0156 2.4500 0.0395 201 201 201
-0.0609 2.4500 0.0371 201 201 201
-0.1065 2.4500 0.0344 200 200 200
-0.1525 2.4500 0.0316 200 200 200
-0.1990 2.4500 0.0285 199 199 199
-0.2461 2.4500 0.0253 199 199 199
-0.2936 2.4500 0.0218 198 198 198
-0.3417 2.4500 0.0181 198 198 198
-0.3905 2.4500 0.0141 197 197 197
-0.4399 2.4500 0.0100 197 197 197
-0.4900 2.4500 0.0055 196 196 196
-0.5408 2.4500 0.0008 195 195 195
-0.5849 2.4339 0.0000 195 195 195
-0.6273 2.4137 0.0000 195 195 195
-0.6692 2.3928 0.0000 195 195 195
-0.7108 2.3712 0.0000 195 195 195
-0.7520 2.3488 0.0000 195 195 195
-0.7928 2.3257 0.0000 195 195 195
-0.8331 2.3019 0.0000 195 195 195
-0.8731 2.2774 0.0000 195 195 195
-0.9126 2.2523 0.0000 195 195 195
-0.9517 2.2264 0.0000 195 195 195
-0.9903 2.1998 0.0000 195 195 195
-1.0285 2.1726 0.0000 195 195 195
-1.0662 2.1447 0.0000 195 195 195
-1.1034 2.1162 0.0000 195 195 195
-1.1400 2.0870 0.0000 195 195 195
-1.1762 2.0572 0.0000 195 195 195
-1.2119 2.0268 0.0000 195 195 195
-1.2470 1.9957 0.0000 195 195 195
-1.2815 1.9641 0.0000 195 195 195
-1.3155 1.9318 0.0000 195 195 195
-1.3489 1.8989 0.0000 195 195 195
-1.3818 1.8655 0.0000 195 195 195
-1.4141 1.8315 0.0000 195 195 195
-1.4457 1.7970 0.0000 195 195 195
-1.4768 1.7619 0.0000 195 195 195
-1.5072 1.7262 0.0000 195 195 195
-1.5370 1.6900 0.0000 195 195 195
-1.5662 1.6534 0.0000 195 195 195
-1.5947 1.6162 0.0000 195 195 195
-1.6226 1.5785 0.0000 195 195 195
-1.6498 1.5403 0.0000 195 195 195
-1.6764 1.5017 0.0000 195 195 195
-1.7023 1.4626 0.0000 195 195 195
-1.7274 1.4231 0.0000 195 195 195
-1.7519 1.3831 0.0000 195 195 195
-1.7757 1.3428 0.0000 195 195 195
-1.7988 1.3020 0.0000 195 195 195
-1.8212 1.2608 0.0000 195 195 195
-1.8428 1.2192 0.0000 195 195 195
-1.8637 1.1773 0.0000 195 195 195
-1.8839 1.1349 0.0000 195 195 195
-1.9033 1.0923 0.0000 195 195 195
-1.9220 1.0493 0.0000 195 195 195
-1.9400 1.0060 0.0000 195 195 195
-1.9571 0.9624 0.0000 195 195 195
-1.9736 0.9185 0.0000 195 195 195
-1.9892 0.8743 0.0000 195 195 195
-2.0041 0.8299 0.0000 195 195 195
-2.0182 0.7852 0.0000 195 195 195
-2.0315 0.7402 0.0000 195 195 195
-2.0440 0.6951 0.0000 195 195 195
-2.0557 0.6497 0.0000 195 195 195
-2.0667 0.6041 0.0000 195 195 195
-2.0768 0.5583 0.0000 195 195 195
-2.0862 0.5124 0.0000 195 195 195
-2.0947 0.4663 0.0000 195 195 195
-2.1025 0.4201 0.0000 195 195 195
-2.1094 0.3738 0.0000 195 195 195
-2.1155 0.3273 0.0000 195 195 195
-2.1208 0.2807 0.0000 195 195 195
-2.1253 0.2341 0.0000 195 195 195
-2.1290 0.1873 0.0000 195 195 195
-2.1318 0.1405 0.0000 195 195 195
-2.1339 0.0937 0.0000 195 195 195
-2.1351 0.0469 0.0000 195 195 195
-2.1355 0.0000 0.0000 195 195 195
-2.1351 -0.0469 0.0000 195 195 195
-2.1339 -0.0937 0.0000 195 195 195
-2.1318 -0.1405 0.0000 195 195 195
-2.1290 -0.1873 0.0000 195 195 195
-2.1253 -0.2341 0.0000 195 195 195
-2.1208 -0.2807 0.0000 195 195 195
-2.1155 -0.3273 0.0000 195 195 195
-2.1094 -0.3738 0.0000 195 195 195
-2.1025 -0.4201 0.0000 195 195 195
-2.0947 -0.4663 0.0000 195 195 195
-2.0862 -0.5124 0.0000 195 195 195
-2.0768 -0.5583 0.0000 195 195 195
-2.0667 -0.6041 0.0000 195 195 195
-2.0557 -0.6497 0.0000 195 195 195
-2.0440 -0.6951 0.0000 195 195 195
-2.0315 -0.7402 0.0000 195 195 195
-2.0182 -0.7852 0.0000 195 195 195
-2.0041 -0.8299 0.0000 195 195 195
-1.9892 -0.8743 0.0000 195 195 195
-1.9736 -0.9185 0.0000 195 195 195
-1.9571 -0.9624 0.0000 195 195 195
-1.9400 -1.0060 0.0000 195 195 195
-1.9220 -1.0493 0.0000 195 195 195
-1.9033 -1.0923 0.0000 195 195 195
-1.8839 -1.1349 0.0000 195 195 195
-1.8637 -1.1773 0.0000 195 195 195
-1.8428 -1.2192 0.0000 195 195 195
-1.8212 -1.2608 0.0000 195 195 195
-1.7988 -1.3020 0.0000 195 195 195
-1.7757 -1.3428 0.0000 195 195 195
-1.7519 -1.3831 0.0000 195 195 195
-1.7274 -1.4231 0.0000 195 195 195
-1.7023 -1.4626 0.0000 195 195 195
-1.6764 -1.5017 0.0000 195 195 195
-1.6498 -1.5403 0.0000 195 195 195
-1.6226 -1.5785 0.0000 195 195 195
-1.5947 -1.6162 0.0000 195 195 195
-1.5662 -1.6534 0.0000 195 195 195
-1.5370 -1.6900 0.0000 195 195 195
-1.5072 -1.7262 0.0000 195 195 195
-1.4768 -1.7619 0.0000 195 195 195
-1.4457 -1.7970 0.0000 195 195 195
-1.4141 -1.8315 0.0000 195 195 195
-1.3818 -1.8655 0.0000 195 195 195
-1.3489 -1.8989 0.0000 195 195 195
-1.3155 -1.9318 0.0000 195 195 195
-1.2815 -1.9641 0.0000 195 195 195
-1.2470 -1.9957 0.0000 195 195 195
-1.2119 -2.0268 0.0000 195 195 195
-1.1762 -2.0572 0.0000 195 195 195
-1.1400 -2.0870 0.0000 195 195 195
-1.1034 -2.1162 0.0000 195 195 195
-1.0662 -2.1447 0.0000 195 195 195
-1.0285 -2.1726 0.0000 195 195 195
-0.9903 -2.1998 0.0000 195 195 195
-0.9517 -2.2264 0.0000 195 195 195
-0.9126 -2.2523 0.0000 195 195 195
-0.8731 -2.2774 0.0000 195 195 195
-0.8331 -2.3019 0.0000 195 195 195
-0.7928 -2.3257 0.0000 195 195 195
-0.7520 -2.3488 0.0000 195 195 195
-0.7108 -2.3712 0.0000 195 195 195
-0.6692 -2.3928 0.0000 195 195 195
-0.6273 -2.4137 0.0000 195 195 195
-0.5849 -2.4339 0.0000 195 195 195
-0.5408 -2.4500 0.0008 195 195 195
-0.4900 -2.4500 0.0055 196 196 196
-0.4399 -2.4500 0.0100 197 197 197
-0.3905 -2.4500 0.0141 197 197 197
-0.3417 -2.4500 0.0181 198 198 198
-0.2936 -2.4500 0.0218 198 198 198
-0.2461 -2.4500 0.0253 199 199 199
-0.1990 -2.4500 0.0285 199 199 199
-0.1525 -2.4500 0.0316 200 200 200
-0.1065 -2.4500 0.0344 200 200 200
-0.0609 -2.4500 0.0371 201 201 201
-0.0156 -2.4500 0.0395 201 201 201
0.0292 -2.4500 0.0417 201 201 201
0.0738 -2.4500 0.0438 201 201 201
0.1180 -2.4500 0.0456 202 202 202
0.1620 -2.4500 0.0473 202 202 202
0.2057 -2.4500 0.0488 202 202 202
0.2492 -2.4500 0.0501 202 202 202
0.2925 -2.4500 0.0513 203 203 203
0.3357 -2.4500 0.0522 203 203 203
0.3787 -2.4500 0.0530 203 203 203
0.4216 -2.4500 0.0536 203 203 203
0.4644 -2.4500 0.0540 203 203 203
0.5072 -2.4500 0.0543 203 203 203
0.5500 -2.4500 0.0544 203 203 203
0.5928 -2.4500 0.0543 203 203 203
0.6356 -2.4500 0.0540 203 203 203
0.6784 -2.4500 0.0536 203 203 203
0.7213 -2.4500 0.0530 203 203 203
0.7643 -2.4500 0.0522 203 203 203
0.8075 -2.4500 0.0513 203 203 203
0.8508 -2.4500 0.0501 202 202 202
0.8943 -2.4500 0.0488 202 202 202
0.9380 -2.4500 0.0473 202 202 202
0.9820 -2.4500 0.0456 202 202 202
1.0262 -2.4500 0.0438 201 201 201
1.0708 -2.4500 0.0417 201 201 201
1.1156 -2.4500 0.0395 201 201 201
1.1609 -2.4500 0.0371 201 201 201
1.2065 -2.4500 0.0344 200 200 200
1.2525 -2.4500 0.0316 200 200 200
1.2990 -2.4500 0.0285 199 199 199
1.3461 -2.4500 0.0253 199 199 199
1.3936 -2.4500 0.0218 198 198 198
1.4417 -2.4500 0.0181 198 198 198
1.4905 -2.4500 0.0141 197 197 197
1.5399 -2.4500 0.0100 197 197 197
1.5900 -2.4500 0.0055 196 196 196
1.6408 -2.4500 0.0008 195 195 195
1.6849 -2.4339 0.0000 195 195 195
1.7273 -2.4137 0.0000 195 195 195
1.7692 -2.3928 0.0000 195 195 195
1.8108 -2.3712 0.0000 195 195 195
1.8520 -2.3488 0.0000 195 195 195
1.8928 -2.3257 0.0000 195 195 195
1.9331 -2.3019 0.0000 195 195 195
1.9731 -2.2774 0.0000 195 195 195
2.0126 -2.2523 0.0000 195 195 195
2.0517 -2.2264 0.0000 195 195 195
2.0903 -2.1998 0.0000 195 195 195
2.1285 -2.1726 0.0000 195 195 195
2.1662 -2.1447 0.0000 195 195 195
2.2034 -2.1162 0.0000 195 195 195
2.2400 -2.0870 0.0000 195 195 195
2.2762 -2.0572 0.0000 195 195 195
2.3119 -2.0268 0.0000 195 195 195
2.3470 -1.9957 0.0000 195 195 195
2.3815 -1.9641 0.0000 195 195 195
2.4155 -1.9318 0.0000 195 195 195
2.4489 -1.8989 0.0000 195 195 195
2.4818 -1.8655 0.0000 195 195 195
2.5141 -1.8315 0.0000 195 195 195
2.5457 -1.7970 0.0000 195 195 195
2.5768 -1.7619 0.0000 195 195 195
2.6072 -1.7262 0.0000 195 195 195
2.6370 -1.6900 0.0000 195 195 195
2.6662 -1.6534 0.0000 195 195 195
2.6947 -1.6162 0.0000 195 195 195
2.7226 -1.5785 0.0000 195 195 195
2.7498 -1.5403 0.0000 195 195 195
2.7764 -1.5017 0.0000 195 195 195
2.8023 -1.4626 0.0000 195 195 195
2.8274 -1.4231 0.0000 195 195 195
2.8519 -1.3831 0.0000 195 195 195
2.8757 -1.3428 0.0000 195 195 195
2.8988 -1.3020 0.0000 195 195 195
2.9212 -1.2608 0.0000 195 195 195
2.9428 -1.2192 0.0000 195 195 195
2.9637 -1.1773 0.0000 195 195 195
2.9839 -1.1349 0.0000 195 195 195
3.0033 -1.0923 0.0000 195 195 195
3.0220 -1.0493 0.0000 195 195 195
3.0400 -1.0060 0.0000 195 195 195
3.0571 -0.9624 0.0000 195 195 195
3.0736 -0.9185 0.0000 195 195 195
3.0892 -0.8743 0.0000 195 195 195
3.1041 -0.8299 0.0000 195 195 195
3.1182 -0.7852 0.0000 195 195 195
3.1315 -0.7402 0.0000 195 195 195
3.1440 -0.6951 0.0000 195 195 195
3.1557 -0.6497 0.0000 195 195 195
3.1667 -0.6041 0.0000 195 195 195
3.1768 -0.5583 0.0000 195 195 195
3.1862 -0.5124 0.0000 195 195 195
3.1947 -0.4663 0.0000 195 195 195
3.2025 -0.4201 0.0000 195 195 195
3.2094 -0.3738 0.0000 195 195 195
3.2155 -0.3273 0.0000 195 195 195
3.2208 -0.2807 0.0000 195 195 195
3.2253 -0.2341 0.0000 195 195 195
3.2290 -0.1873 0.0000 195 195 195
3.2318 -0.1405 0.0000 195 195 195
3.2339 -0.0937 0.0000 195 195 195
3.2351 -0.0469 0.0000 195 195 195
3.7396 0.0000 0.0000 179 179 179
3.7391 0.0557 0.0000 179 179 179
3.7377 0.1113 0.0000 179 179 179
3.7353 0.1669 0.0000 179 179 179
3.7319 0.2225 0.0000 179 179 179
3.7275 0.2780 0.0000 179 179 179
3.7222 0.3334 0.0000 179 179 179
3.7158 0.3887 0.0000 179 179 179
3.7086 0.4439 0.0000 179 179 179
3.7004 0.4990 0.0000 179 179 179
3.6912 0.5539 0.0000 179 179 179
3.6810 0.6086 0.0000 179 179 179
3.6699 0.6632 0.0000 179 179 179
3.6579 0.7175 0.0000 179 179 179
3.6449 0.7716 0.0000 179 179 179
3.6309 0.8255 0.0000 179 179 179
3.6161 0.8792 0.0000 179 179 179
3.6003 0.9326 0.0000 179 179 179
3.5835 0.9856 0.0000 179 179 179
3.5658 1.0384 0.0000 179 179 179
3.5473 1.0909 0.0000 179 179 179
3.5278 1.1431 0.0000 179 179 179
3.5074 1.1949 0.0000 179 179 179
3.4861 1.2463 0.0000 179 179 179
3.4639 1.2973 0.0000 179 179 179
3.4408 1.3480 0.0000 179 179 179
3.4168 1.3982 0.0000 179 179 179
3.3920 1.4481 0.0000 179 179 179
3.3663 1.4974 0.0000 179 179 179
3.3397 1.5464 0.0000 179 179 179
3.3123 1.5948 0.0000 179 179 179
3.2840 1.6428 0.0000 179 179 179
3.2550 1.6902 0.0000 179 179 179
3.2250 1.7372 0.0000 179 179 179
3.1943 1.7836 0.0000 179 179 179
3.1628 1.8295 0.0000 179 179 179
3.1305 1.8748 0.0000 179 179 179
3.0973 1.9196 0.0000 179 179 179
3.0635 1.9637 0.0000 179 179 179
3.0288 2.0073 0.0000 179 179 179
2.9934 2.0503 0.0000 179 179 179
2.9572 2.0926 0.0000 179 179 179
2.9204 2.1343 0.0000 179 179 179
2.8827 2.1753 0.0000 179 179 179
2.8444 2.2157 0.0000 179 179 179
2.8054 2.2554 0.0000 179 179 179
2.7657 2.2944 0.0000 179 179 179
2.7253 2.3327 0.0000 179 179 179
2.6843 2.3704 0.0000 179 179 179
2.6426 2.4072 0.0000 179 179 179
2.6003 2.4434 0.0000 179 179 179
2.5340 2.4500 0.0072 180 180 180
2.4641 2.4500 0.0157 181 181 181
2.3962 2.4500 0.0237 183 183 183
2.3300 2.4500 0.0313 184 184 184
2.2655 2.4500 0.0386 185 185 185
2.2025 2.4500 0.0456 187 187 187
2.1410 2.4500 0.0522 188 188 188
2.0809 2.4500 0.0584 189 189 189
2.0221 2.4500 0.0644 190 190 190
1.9645 2.4500 0.0701 191 191 191
1.9081 2.4500 0.0755 192 192 192
1.8527 2.4500 0.0806 193 193 193
1.7983 2.4500 0.0855 194 194 194
1.7449 2.4500 0.0901 194 194 194
1.6925 2.4500 0.0945 195 195 195
1.6408 2.4500 0.0987 196 196 196
1.5900 2.4500 0.1026 197 197 197
1.5399 2.4500 0.1064 197 197 197
1.4905 2.4500 0.1099 198 198 198
1.4417 2.4500 0.1132 198 198 198
1.3936 2.4500 0.1163 199 199 199
1.3461 2.4500 0.1193 199 199 199
1.2990 2.4500 0.1220 200 200 200
1.2525 2.4500 0.1246 200 200 200
1.2065 2.4500 0.1270 201 201 201
1.1609 2.4500 0.1292 201 201 201
1.1156 2.4500 0.1312 201 201 201
1.0708 2.4500 0.1331 202 202 202
1.0262 2.4500 0.1349 202 202 202
0.9820 2.4500 0.1364 202 202 202
0.9380 2.4500 0.1378 203 203 203
0.8943 2.4500 0.1391 203 203 203
0.8508 2.4500 0.1402 203 203 203
0.8075 2.4500 0.1411 203 203 203
0.7643 2.4500 0.1419 203 203 203
0.7213 2.4500 0.1426 203 203 203
0.6784 2.4500 0.1431 204 204 204
0.6356 2.4500 0.1435 204 204 204
0.5928 2.4500 0.1437 204 204 204
0.5500 2.4500 0.1438 204 204 204
0.5072 2.4500 0.1437 204 204 204
0.4644 2.4500 0.1435 204 204 204
0.4216 2.4500 0.1431 204 204 204
0.3787 2.4500 0.1426 203 203 203
0.3357 2.4500 0.1419 203 203 203
0.2925 2.4500 0.1411 203 203 203
0.2492 2.4500 0.1402 203 203 203
0.2057 2.4500 0.1391 203 203 203
0.1620 2.4500 0.1378 203 203 203
0.1180 2.4500 0.1364 202 202 202
0.0738 2.4500 0.1349 202 202 202
0.0292 2.4500 0.1331 202 202 202
-0.0156 2.4500 0.1312 201 201 201
-0.0609 2.4500 0.1292 201 201 201
-0.1065 2.4500 0.1270 201 201 201
-0.1525 2.4500 0.1246 200 200 200
-0.1990 2.4500 0.1220 200 200 200
-0.2461 2.4500 0.1193 199 199 199
-0.2936 2.4500 0.1163 199 199 199
-0.3417 2.4500 0.1132 198 198 198
-0.3905 2.4500 0.1099 198 198 198
-0.4399 2.4500 0.1064 197 197 197
-0.4900 2.4500 0.1026 197 197 197
-0.5408 2.4500 0.0987 196 196 196
-0.5925 2.4500 0.0945 195 195 195
-0.6449 2.4500 0.0901 194 194 194
-0.6983 2.4500 0.0855 194 194 194
-0.7527 2.4500 0.0806 193 193 193
-0.8081 2.4500 0.0755 192 192 192
-0.8645 2.4500 0.0701 191 191 191
-0.9221 2.4500 0.0644 190 190 190
-0.9809 2.4500 0.0584 189 189 189
-1.0410 2.4500 0.0522 188 188 188
-1.1025 2.4500 0.0456 187 187 187
-1.1655 2.4500 0.0386 185 185 185
-1.2300 2.4500 0.0313 184 184 184
-1.2962 2.4500 0.0237 183 183 183
-1.3641 2.4500 0.0157 181 181 181
-1.4340 2.4500 0.0072 180 180 180
-1.5003 2.4434 0.0000 179 179 179
-1.5426 2.4072 0.0000 179 179 179
-1.5843 2.3704 0.0000 179 179 179
-1.6253 2.3327 0.0000 179 179 179
-1.6657 2.2944 0.0000 179 179 179
-1.7054 2.2554 0.0000 179 179 179
-1.7444 2.2157 0.0000 179 179 179
-1.7827 2.1753 0.0000 179 179 179
-1.8204 2.1343 0.0000 179 179 179
-1.8572 2.0926 0.0000 179 179 179
-1.8934 2.0503 0.0000 179 179 179
-1.9288 2.0073 0.0000 179 179 179
-1.9635 1.9637 0.0000 179 179 179
-1.9973 1.9196 0.0000 179 179 179
-2.0305 1.8748 0.0000 179 179 179
-2.0628 1.8295 0.0000 179 179 179
-2.0943 1.7836 0.0000 179 179 179
-2.1250 1.7372 0.0000 179 179 179
-2.1550 1.6902 0.0000 179 179 179
-2.1840 1.6428 0.0000 179 179 179
-2.2123 1.5948 0.0000 179 179 179
-2.2397 1.5464 0.0000 179 179 179
-2.2663 1.4974 0.0000 179 179 179
-2.2920 1.4481 0.0000 179 179 179
-2.3168 1.3982 0.0000 179 179 179
-2.3408 1.3480 0.0000 179 179 179
-2.3639 1.2973 0.0000 179 179 179
-2.3861 1.2463 0.0000 179 179 179
-2.4074 1.1949 0.0000 179 179 179
-2.4278 1.1431 0.0000 179 179 179
-2.4473 1.0909 0.0000 179 179 179
-2.4658 1.0384 0.0000 179 179 179
-2.4835 0.9856 0.0000 179 179 179
-2.5003 0.9326 0.0000 179 179 179
-2.5161 0.8792 0.0000 179 179 179
-2.5309 0.8255 0.0000 179 179 179
-2.5449 0.7716 0.0000 179 179 179
-2.5579 0.7175 0.0000 179 179 179
-2.5699 0.6632 0.0000 179 179 179
-2.5810 0.6086 0.0000 179 179 179
-2.5912 0.5539 0.0000 179 179 179
-2.6004 0.4990 0.0000 179 179 179
-2.6086 0.4439 0.0000 179 179 179
-2.6158 0.3887 0.0000 179 179 179
-2.6222 0.3334 0.0000 179 179 179
-2.6275 0.2780 0.0000 179 179 179
-2.6319 0.2225 0.0000 179 179 179
-2.6353 0.1669 0.0000 179 179 179
-2.6377 0.1113 0.0000 179 179 179
-2.6391 0.0557 0.0000 179 179 179
-2.6396 0.0000 0.0000 179 179 179
-2.6391 -0.0557 0.0000 179 179 179
-2.6377 -0.1113 0.0000 179 179 179
-2.6353 -0.1669 0.0000 179 179 179
-2.6319 -0.2225 0.0000 179 179 179
-2.6275 -0.2780 0.0000 179 179 179
-2.6222 -0.3334 0.0000 179 179 179
-2.6158 -0.3887 0.0000 179 179 179
-2.6086 -0.4439 0.0000 179 179 179
-2.6004 -0.4990 0.0000 179 179 179
-2.5912 -0.5539 0.0000 179 179 179
-2.5810 -0.6086 0.0000 179 179 179
-2.5699 -0.6632 0.0000 179 179 179
-2.5579 -0.7175 0.0000 179 179 179
-2.5449 -0.7716 0.0000 179 179 179
-2.5309 -0.8255 0.0000 179 179 179
-2.5161 -0.8792 0.0000 179 179 179
-2.5003 -0.9326 0.0000 179 179 179
-2.4835 -0.9856 0.0000 179 179 179
-2.4658 -1.0384 0.0000 179 179 179
-2.4473 -1.0909 0.0000 179 179 179
-2.4278 -1.1431 0.0000 179 179 179
-2.4074 -1.1949 0.0000 179 179 179
-2.3861 -1.2463 0.0000 179 179 179
-2.3639 -1.2973 0.0000 179 179 179
-2.3408 -1.3480 0.0000 179 179 179
-2.3168 -1.3982 0.0000 179 179 179
-2.2920 -1.4481 0.0000 179 179 179
-2.2663 -1.4974 0.0000 179 179 179
-2.2397 -1.5464 0.0000 179 179 179
-2.2123 -1.5948 0.0000 179 179 179
-2.1840 -1.6428 0.0000 179 179 179
-2.1550 -1.6902 0.0000 179 179 179
-2.1250 -1.7372 0.0000 179 179 179
-2.0943 -1.7836 0.0000 179 179 179
-2.0628 -1.8295 0.0000 179 179 179
-2.0305 -1.8748 0.0000 179 179 179
-1.9973 -1.9196 0.0000 179 179 179
-1.9635 -1.9637 0.0000 179 179 179
-1.9288 -2.0073 0.0000 179 179 179
-1.8934 -2.0503 0.0000 179 179 179
-1.8572 -2.0926 0.0000 179 179 179
-1.8204 -2.1343 0.0000 179 179 179
-1.7827 -2.1753 0.0000 179 179 179
-1.7444 -2.2157 0.0000 179 179 179
-1.7054 -2.2554 0.0000 179 179 179
-1.6657 -2.2944 0.0000 179 179 179
-1.6253 -2.3327 0.0000 179 179 179
-1.5843 -2.3704 0.0000 179 179 179
-1.5426 -2.4072 0.0000 179 179 179
-1.5003 -2.4434 0.0000 179 179 179
-1.4340 -2.4500 0.0072 180 180 180
-1.3641 -2.4500 0.0157 181 181 181
-1.2962 -2.4500 0.0237 183 183 183
-1.2300 -2.4500 0.0313 184 184 184
-1.1655 -2.4500 0.0386 185 185 185
-1.1025 -2.4500 0.0456 187 187 187
-1.0410 -2.4500 0.0522 188 188 188
-0.9809 -2.4500 0.0584 189 189 189
-0.9221 -2.4500 0.0644 190 190 190
-0.8645 -2.4500 0.0701 191 191 191
-0.8081 -2.4500 0.0755 192 192 192
-0.7527 -2.4500 0.0806 193 193 193
-0.6983 -2.4500 0.0855 194 194 194
-0.6449 -2.4500 0.0901 194 194 194
-0.5925 -2.4500 0.0945 195 195 195
-0.5408 -2.4500 0.0987 196 196 196
-0.4900 -2.4500 0.1026 197 197 197
-0.4399 -2.4500 0.1064 197 197 197
-0.3905 -2.4500 0.1099 198 198 198
-0.3417 -2.4500 0.1132 198 198 198
-0.2936 -2.4500 0.1163 199 199 199
-0.2461 -2.4500 0.1193 199 199 199
-0.1990 -2.4500 0.1220 200 200 200
-0.1525 -2.4500 0.1246 200 200 200
-0.1065 -2.4500 0.1270 201 201 201
-0.0609 -2.4500 0.1292 201 201 201
-0.0156 -2.4500 0.1312 201 201 201
0.0292 -2.4500 0.1331 202 202 202
0.0738 -2.4500 0.1349 202 202 202
0.1180 -2.4500 0.1364 202 202 202
0.1620 -2.4500 0.1378 203 203 203
0.2057 -2.4500 0.1391 203 203 203
0.2492 -2.4500 0.1402 203 203 203
0.2925 -2.4500 0.1411 203 203 203
0.3357 -2.4500 0.1419 203 203 203
0.3787 -2.4500 0.1426 203 203 203
0.4216 -2.4500 0.1431 204 204 204
0.4644 -2.4500 0.1435 204 204 204
0.5072 -2.4500 0.1437 204 204 204
0.5500 -2.4500 0.1438 204 204 204
0.5928 -2.4500 0.1437 204 204 204
0.6356 -2.4500 0.1435 204 204 204
0.6784 -2.4500 0.1431 204 204 204
0.7213 -2.4500 0.1426 203 203 203
0.7643 -2.4500 0.1419 203 203 203
0.8075 -2.4500 0.1411 203 203 203
0.8508 -2.4500 0.1402 203 203 203
0.8943 -2.4500 0.1391 203 203 203
0.9380 -2.4500 0.1378 203 203 203
0.9820 -2.4500 0.1364 202 202 202
1.0262 -2.4500 0.1349 202 202 202
1.0708 -2.4500 0.1331 202 202 202
1.1156 -2.4500 0.1312 201 201 201
1.1609 -2.4500 0.1292 201 201 201
1.2065 -2.4500 0.1270 201 201 201
1.2525 -2.4500 0.1246 200 200 200
1.2990 -2.4500 0.1220 200 200 200
1.3461 -2.4500 0.1193 199 199 199
1.3936 -2.4500 0.1163 199 199 199
1.4417 -2.4500 0.1132 198 198 198
1.4905 -2.4500 0.1099 198 198 198
1.5399 -2.4500 0.1064 197 197 197
1.5900 -2.4500 0.1026 197 197 197
1.6408 -2.4500 0.0987 196 196 196
1.6925 -2.4500 0.0945 195 195 195
1.7449 -2.4500 0.0901 194 194 194
1.7983 -2.4500 0.0855 194 194 194
1.8527 -2.4500 0.0806 193 193 193
1.9081 -2.4500 0.0755 192 192 192
1.9645 -2.4500 0.0701 191 191 191
2.0221 -2.4500 0.0644 190 190 190
2.0809 -2.4500 0.0584 189 189 189
2.1410 -2.4500 0.0522 188 188 188
2.2025 -2.4500 0.0456 187 187 187
2.2655 -2.4500 0.0386 185 185 185
2.3300 -2.4500 0.0313 184 184 184
2.3962 -2.4500 0.0237 183 183 183
2.4641 -2.4500 0.0157 181 181 181
2.5340 -2.4500 0.0072 180 180 180
2.6003 -2.4434 0.0000 179 179 179
2.6426 -2.4072 0.0000 179 179 179
2.6843 -2.3704 0.0000 179 179 179
2.7253 -2.3327 0.0000 179 179 179
2.7657 -2.2944 0.0000 179 179 179
2.8054 -2.2554 0.0000 179 179 179
2.8444 -2.2157 0.0000 179 179 179
2.8827 -2.1753 0.0000 179 179 179
2.9204 -2.1343 0.0000 179 179 179
2.9572 -2.0926 0.0000 179 179 179
2.9934 -2.0503 0.0000 179 179 179
3.0288 -2.0073 0.0000 179 179 179
3.0635 -1.9637 0.0000 179 179 179
3.0973 -1.9196 0.0000 179 179 179
3.1305 -1.8748 0.0000 179 179 179
3.1628 -1.8295 0.0000 179 179 179
3.1943 -1.7836 0.0000 179 179 179
3.2250 -1.7372 0.0000 179 179 179
3.2550 -1.6902 0.0000 179 179 179
3.2840 -1.6428 0.0000 179 179 179
3.3123 -1.5948 0.0000 179 179 179
3.3397 -1.5464 0.0000 179 179 179
3.3663 -1.4974 0.0000 179 179 179
3.3920 -1.4481 0.0000 179 179 179
3.4168 -1.3982 0.0000 179 179 179
3.4408 -1.3480 0.0000 179 179 179
3.4639 -1.2973 0.0000 179 179 179
3.4861 -1.2463 0.0000 179 179 179
3.5074 -1.1949 0.0000 179 179 179
3.5278 -1.1431 0.0000 179 179 179
3.5473 -1.0909 0.0000 179 179 179
3.5658 -1.0384 0.0000 179 179 179
3.5835 -0.9856 0.0000 179 179 179
3.6003 -0.9326 0.0000 179 179 179
3.6161 -0.8792 0.0000 179 179 179
3.6309 -0.8255 0.0000 179 179 179
3.6449 -0.7716 0.0000 179 179 179
3.6579 -0.7175 0.0000 179 179 179
3.6699 -0.6632 0.0000 179 179 179
3.6810 -0.6086 0.0000 179 179 179
3.6912 -0.5539 0.0000 179 179 179
3.7004 -0.4990 0.0000 179 179 179
3.7086 -0.4439 0.0000 179 179 179
3.7158 -0.3887 0.0000 179 179 179
3.7222 -0.3334 0.0000 179 179 179
3.7275 -0.2780 0.0000 179 179 179
3.7319 -0.2225 0.0000 179 179 179
3.7353 -0.1669 0.0000 179 179 179
3.7377 -0.1113 0.0000 179 179 179
3.7391 -0.0557 0.0000 179 179 179
4.4645 0.0000 0.0000 156 156 156
4.4639 0.0683 0.0000 156 156 156
4.4621 0.1366 0.0000 156 156 156
4.4592 0.2049 0.0000 156 156 156
4.4550 0.2731 0.0000 156 156 156
4.4496 0.3412 0.0000 156 156 156
4.4431 0.4092 0.0000 156 156 156
4.2961 0.4600 0.0222 160 160 160
4.2975 0.5267 0.0206 160 160 160
4.4163 0.6124 0.0000 156 156 156
4.4051 0.6798 0.0000 156 156 156
4.3926 0.7469 0.0000 156 156 156
4.3790 0.8139 0.0000 156 156 156
4.3642 0.8806 0.0000 156 156 156
4.3482 0.9470 0.0000 156 156 156
4.3311 1.0132 0.0000 156 156 156
4.3129 1.0790 0.0000 156 156 156
4.2935 1.1445 0.0000 156 156 156
4.2729 1.2097 0.0000 156 156 156
4.2513 1.2744 0.0000 156 156 156
4.2285 1.3388 0.0000 156 156 156
4.2045 1.4028 0.0000 156 156 156
4.1795 1.4664 0.0000 156 156 156
4.1533 1.5295 0.0000 156 156 156
4.1261 1.5922 0.0000 156 156 156
4.0978 1.6544 0.0000 156 156 156
4.0684 1.7160 0.0000 156 156 156
4.0379 1.7772 0.0000 156 156 156
4.0063 1.8378 0.0000 156 156 156
3.9737 1.8978 0.0000 156 156 156
3.9401 1.9573 0.0000 156 156 156
3.9054 2.0161 0.0000 156 156 156
3.8697 2.0744 0.0000 156 156 156
3.8330 2.1320 0.0000 156 156 156
3.7953 2.1890 0.0000 156 156 156
3.7566 2.2453 0.0000 156 156 156
3.7169 2.3009 0.0000 156 156 156
3.6763 2.3558 0.0000 156 156 156
3.6347 2.4100 0.0000 156 156 156
3.5755 2.4500 0.0034 157 157 157
3.4698 2.4500 0.0163 159 159 159
3.3684 2.4500 0.0285 162 162 162
3.2710 2.4500 0.0401 164 164 164
3.1773 2.4500 0.0510 166 166 166
3.0870 2.4500 0.0614 168 168 168
3.0000 2.4500 0.0712 170 170 170
2.9159 2.4500 0.0806 172 172 172
2.8347 2.4500 0.0894 174 174 174
2.7560 2.4500 0.0978 176 176 176
2.6798 2.4500 0.1058 178 178 178
2.6058 2.4500 0.1134 179 179 179
2.5340 2.4500 0.1207 181 181 181
2.4641 2.4500 0.1276 182 182 182
2.3962 2.4500 0.1341 183 183 183
2.3300 2.4500 0.1404 185 185 185
2.2655 2.4500 0.1463 186 186 186
2.2025 2.4500 0.1519 187 187 187
2.1410 2.4500 0.1573 188 188 188
2.0809 2.4500 0.1624 189 189 189
2.0221 2.4500 0.1673 191 191 191
1.9645 2.4500 0.1719 191 191 191
1.9081 2.4500 0.1763 192 192 192
1.8527 2.4500 0.1805 193 193 193
1.7983 2.4500 0.1845 194 194 194
1.7449 2.4500 0.1883 195 195 195
1.6925 2.4500 0.1918 196 196 196
1.6408 2.4500 0.1952 196 196 196
1.5900 2.4500 0.1984 197 197 197
1.5399 2.4500 0.2015 198 198 198
1.4905 2.4500 0.2044 198 198 198
1.4417 2.4500 0.2071 199 199 199
1.3936 2.4500 0.2096 199 199 199
1.3461 2.4500 0.2120 200 200 200
1.2990 2.4500 0.2142 200 200 200
1.2525 2.4500 0.2163 201 201 201
1.2065 2.4500 0.2183 201 201 201
1.1609 2.4500 0.2201 202 202 202
1.1156 2.4500 0.2218 202 202 202
1.0708 2.4500 0.2233 202 202 202
1.0262 2.4500 0.2247 203 203 203
0.9820 2.4500 0.2260 203 203 203
0.9380 2.4500 0.2271 203 203 203
0.8943 2.4500 0.2281 203 203 203
0.8508 2.4500 0.2290 204 204 204
0.8075 2.4500 0.2298 204 204 204
0.7643 2.4500 0.2305 204 204 204
0.7213 2.4500 0.2310 204 204 204
0.6784 2.4500 0.2314 204 204 204
0.6356 2.4500 0.2317 204 204 204
0.5928 2.4500 0.2319 204 204 204
0.5500 2.4500 0.2320 204 204 204
0.5072 2.4500 0.2319 204 204 204
0.4644 2.4500 0.2317 204 204 204
0.4216 2.4500 0.2314 204 204 204
0.3787 2.4500 0.2310 204 204 204
0.3357 2.4500 0.2305 204 204 204
0.2925 2.4500 0.2298 204 204 204
0.2492 2.4500 0.2290 204 204 204
0.2057 2.4500 0.2281 203 203 203
0.1620 2.4500 0.2271 203 203 203
0.1180 2.4500 0.2260 203 203 203
0.0738 2.4500 0.2247 203 203 203
0.0292 2.4500 0.2233 202 202 202
-0.0156 2.4500 0.2218 202 202 202
-0.0609 2.4500 0.2201 202 202 202
-0.1065 2.4500 0.2183 201 201 201
-0.1525 2.4500 0.2163 201 201 201
-0.1990 2.4500 0.2142 200 200 200
-0.2461 2.4500 0.2120 200 200 200
-0.2936 2.4500 0.2096 199 199 199
-0.3417 2.4500 0.2071 199 199 199
-0.3905 2.4500 0.2044 198 198 198
-0.4399 2.4500 0.2015 198 198 198
-0.4900 2.4500 0.1984 197 197 197
-0.5408 2.4500 0.1952 196 196 196
-0.5925 2.4500 0.1918 196 196 196
-0.6449 2.4500 0.1883 195 195 195
-0.6983 2.4500 0.1845 194 194 194
-0.7527 2.4500 0.1805 193 193 193
-0.8081 2.4500 0.1763 192 192 192
-0.8645 2.4500 0.1719 191 191 191
-0.9221 2.4500 0.1673 191 191 191
-0.9809 2.4500 0.1624 189 189 189
-1.0410 2.4500 0.1573 188 188 188
-1.1025 2.4500 0.1519 187 187 187
-1.1655 2.4500 0.1463 186 186 186
-1.2300 2.4500 0.1404 185 185 185
-1.2962 2.4500 0.1341 183 183 183
-1.3641 2.4500 0.1276 182 182 182
-1.4340 2.4500 0.1207 181 181 181
-1.5058 2.4500 0.1134 179 179 179
-1.5798 2.4500 0.1058 178 178 178
-1.6560 2.4500 0.0978 176 176 176
-1.7347 2.4500 0.0894 174 174 174
-1.8159 2.4500 0.0806 172 172 172
-1.9000 2.4500 0.0712 170 170 170
-1.9870 2.4500 0.0614 168 168 168
-2.0773 2.4500 0.0510 166 166 166
-2.1710 2.4500 0.0401 164 164 164
-2.2684 2.4500 0.0285 162 162 162
-2.3698 2.4500 0.0163 159 159 159
-2.4755 2.4500 0.0034 157 157 157
-2.5347 2.4100 0.0000 156 156 156
-2.5763 2.3558 0.0000 156 156 156
-2.6169 2.3009 0.0000 156 156 156
-2.6566 2.2453 0.0000 156 156 156
-2.6953 2.1890 0.0000 156 156 156
-2.7330 2.1320 0.0000 156 156 156
-2.7697 2.0744 0.0000 156 156 156
-2.8054 2.0161 0.0000 156 156 156
-2.8401 1.9573 0.0000 156 156 156
-2.8737 1.8978 0.0000 156 156 156
-2.9063 1.8378 0.0000 156 156 156
-2.9379 1.7772 0.0000 156 156 156
-2.9684 1.7160 0.0000 156 156 156
-2.9978 1.6544 0.0000 156 156 156
-3.0261 1.5922 0.0000 156 156 156
-3.0533 1.5295 0.0000 156 156 156
-3.0795 1.4664 0.0000 156 156 156
-3.1045 1.4028 0.0000 156 156 156
-3.1285 1.3388 0.0000 156 156 156
-3.1513 1.2744 0.0000 156 156 156
-3.1729 1.2097 0.0000 156 156 156
-3.1935 1.1445 0.0000 156 156 156
-3.2129 1.0790 0.0000 156 156 156
-3.2311 1.0132 0.0000 156 156 156
-3.2482 0.9470 0.0000 156 156 156
-3.2642 0.8806 0.0000 156 156 156
-3.2790 0.8139 0.0000 156 156 156
-3.2926 0.7469 0.0000 156 156 156
-3.3051 0.6798 0.0000 156 156 156
-3.3163 0.6124 0.0000 156 156 156
-3.3264 0.5448 0.0000 156 156 156
-3.3353 0.4771 0.0000 156 156 156
-3.3431 0.4092 0.0000 156 156 156
-3.3496 0.3412 0.0000 156 156 156
-3.3550 0.2731 0.0000 156 156 156
-3.3592 0.2049 0.0000 156 156 156
-3.3621 0.1366 0.0000 156 156 156
-3.3639 0.0683 0.0000 156 156 156
-3.3645 0.0000 0.0000 156 156 156
-3.3639 -0.0683 0.0000 156 156 156
-3.3621 -0.1366 0.0000 156 156 156
-3.3592 -0.2049 0.0000 156 156 156
-3.3550 -0.2731 0.0000 156 156 156
-3.3496 -0.3412 0.0000 156 156 156
-3.3431 -0.4092 0.0000 156 156 156
-3.3353 -0.4771 0.0000 156 156 156
-3.3264 -0.5448 0.0000 156 156 156
-3.3163 -0.6124 0.0000 156 156 156
-3.3051 -0.6798 0.0000 156 156 156
-3.2926 -0.7469 0.0000 156 156 156
-3.2790 -0.8139 0.0000 156 156 156
-3.2642 -0.8806 0.0000 156 156 156
-3.2482 -0.9470 0.0000 156 156 156
-3.2311 -1.0132 0.0000 156 156 156
-3.2129 -1.0790 0.0000 156 156 156
-3.1935 -1.1445 0.0000 156 156 156
-3.1729 -1.2097 0.0000 156 156 156
-3.1513 -1.2744 0.0000 156 156 156
-3.1285 -1.3388 0.0000 156 156 156
-3.1045 -1.4028 0.0000 156 156 156
-3.0795 -1.4664 0.0000 156 156 156
-3.0533 -1.5295 0.0000 156 156 156
-3.0261 -1.5922 0.0000 156 156 156
-2.9978 -1.6544 0.0000 156 156 156
-2.9684 -1.7160 0.0000 156 156 156
-2.9379 -1.7772 0.0000 156 156 156
-2.9063 -1.8378 0.0000 156 156 156
-2.8737 -1.8978 0.0000 156 156 156
-2.8401 -1.9573 0.0000 156 156 156
-2.8054 -2.0161 0.0000 156 156 156
-2.7697 -2.0744 0.0000 156 156 156
-2.7330 -2.1320 0.0000 156 156 156
-2.6953 -2.1890 0.0000 156 156 156
-2.6566 -2.2453 0.0000 156 156 156
-2.6169 -2.3009 0.0000 156 156 156
-2.5763 -2.3558 0.0000 156 156 156
-2.5347 -2.4100 0.0000 156 156 156
-2.4755 -2.4500 0.0034 157 157 157
-2.3698 -2.4500 0.0163 159 159 159
-2.2684 -2.4500 0.0285 162 162 162
-2.1710 -2.4500 0.0401 164 164 164
-2.0773 -2.4500 0.0510 166 166 166
-1.9870 -2.4500 0.0614 168 168 168
-1.9000 -2.4500 0.0712 170 170 170
-1.8159 -2.4500 0.0806 172 172 172
-1.7347 -2.4500 0.0894 174 174 174
-1.6560 -2.4500 0.0978 176 176 176
-1.5798 -2.4500 0.1058 178 178 178
-1.5058 -2.4500 0.1134 179 179 179
-1.4340 -2.4500 0.1207 181 181 181
-1.3641 -2.4500 0.1276 182 182 182
-1.2962 -2.4500 0.1341 183 183 183
-1.2300 -2.4500 0.1404 185 185 185
-1.1655 -2.4500 0.1463 186 186 186
-1.1025 -2.4500 0.1519 187 187 187
-1.0410 -2.4500 0.1573 188 188 188
-0.9809 -2.4500 0.1624 189 189 189
-0.9221 -2.4500 0.1673 191 191 191
-0.8645 -2.4500 0.1719 191 191 191
-0.8081 -2.4500 0.1763 192 192 192
-0.7527 -2.4500 0.1805 193 193 193
-0.6983 -2.4500 0.1845 194 194 194
-0.6449 -2.4500 0.1883 195 195 195
-0.5925 -2.4500 0.1918 196 196 196
-0.5408 -2.4500 0.1952 196 196 196
-0.4900 -2.4500 0.1984 197 197 197
-0.4399 -2.4500 0.2015 198 198 198
-0.3905 -2.4500 0.2044 198 198 198
-0.3417 -2.4500 0.2071 199 199 199
-0.2936 -2.4500 0.2096 199 199 199
-0.2461 -2.4500 0.2120 200 200 200
-0.1990 -2.4500 0.2142 200 200 200
-0.1525 -2.4500 0.2163 201 201 201
-0.1065 -2.4500 0.2183 201 201 201
-0.0609 -2.4500 0.2201 202 202 202
-0.0156 -2.4500 0.2218 202 202 202
0.0292 -2.4500 0.2233 202 202 202
0.0738 -2.4500 0.2247 203 203 203
0.1180 -2.4500 0.2260 203 203 203
0.1620 -2.4500 0.2271 203 203 203
0.2057 -2.4500 0.2281 203 203 203
0.2492 -2.4500 0.2290 204 204 204
0.2925 -2.4500 0.2298 204 204 204
0.3357 -2.4500 0.2305 204 204 204
0.3787 -2.4500 0.2310 204 204 204
0.4216 -2.4500 0.2314 204 204 204
0.4644 -2.4500 0.2317 204 204 204
0.5072 -2.4500 0.2319 204 204 204
0.5500 -2.4500 0.2320 204 204 204
0.5928 -2.4500 0.2319 204 204 204
0.6356 -2.4500 0.2317 204 204 204
0.6784 -2.4500 0.2314 204 204 204
0.7213 -2.4500 0.2310 204 204 204
0.7643 -2.4500 0.2305 204 204 204
0.8075 -2.4500 0.2298 204 204 204
0.8508 -2.4500 0.2290 204 204 204
0.8943 -2.4500 0.2281 203 203 203
0.9380 -2.4500 0.2271 203 203 203
0.9820 -2.4500 0.2260 203 203 203
1.0262 -2.4500 0.2247 203 203 203
1.0708 -2.4500 0.2233 202 202 202
1.1156 -2.4500 0.2218 202 202 202
1.1609 -2.4500 0.2201 202 202 202
1.2065 -2.4500 0.2183 201 201 201
1.2525 -2.4500 0.2163 201 201 201
1.2990 -2.4500 0.2142 200 200 200
1.3461 -2.4500 0.2120 200 200 200
1.3936 -2.4500 0.2096 199 199 199
1.4417 -2.4500 0.2071 199 199 199
1.4905 -2.4500 0.2044 198 198 198
1.5399 -2.4500 0.2015 198 198 198
1.5900 -2.4500 0.1984 197 197 197
1.6408 -2.4500 0.1952 196 196 196
1.6925 -2.4500 0.1918 196 196 196
1.7449 -2.4500 0.1883 195 195 195
1.7983 -2.4500 0.1845 194 194 194
1.8527 -2.4500 0.1805 193 193 193
1.9081 -2.4500 0.1763 192 192 192
1.9645 -2.4500 0.1719 191 191 191
2.0221 -2.4500 0.1673 191 191 191
2.0809 -2.4500 0.1624 189 189 189
2.1410 -2.4500 0.1573 188 188 188
2.2025 -2.4500 0.1519 187 187 187
2.2655 -2.4500 0.1463 186 186 186
2.3300 -2.4500 0.1404 185 185 185
2.3962 -2.4500 0.1341 183 183 183
2.4641 -2.4500 0.1276 182 182 182
2.5340 -2.4500 0.1207 181 181 181
2.6058 -2.4500 0.1134 179 179 179
2.6798 -2.4500 0.1058 178 178 178
2.7560 -2.4500 0.0978 176 176 176
2.8347 -2.4500 0.0894 174 174 174
2.9159 -2.4500 0.0806 172 172 172
3.0000 -2.4500 0.0712 170 170 170
3.0870 -2.4500 0.0614 168 168 168
3.1773 -2.4500 0.0510 166 166 166
3.2710 -2.4500 0.0401 164 164 164
3.3684 -2.4500 0.0285 162 162 162
3.4698 -2.4500 0.0163 159 159 159
3.5755 -2.4500 0.0034 157 157 157
3.6347 -2.4100 0.0000 156 156 156
3.6763 -2.3558 0.0000 156 156 156
3.7169 -2.3009 0.0000 156 156 156
3.7566 -2.2453 0.0000 156 156 156
3.7953 -2.1890 0.0000 156 156 156
3.8330 -2.1320 0.0000 156 156 156
3.8697 -2.0744 0.0000 156 156 156
3.9054 -2.0161 0.0000 156 156 156
3.9401 -1.9573 0.0000 156 156 156
3.9737 -1.8978 0.0000 156 156 156
4.0063 -1.8378 0.0000 156 156 156
4.0379 -1.7772 0.0000 156 156 156
4.0684 -1.7160 0.0000 156 156 156
4.0978 -1.6544 0.0000 156 156 156
4.1261 -1.5922 0.0000 156 156 156
4.1533 -1.5295 0.0000 156 156 156
4.1795 -1.4664 0.0000 156 156 156
4.2045 -1.4028 0.0000 156 156 156
4.2285 -1.3388 0.0000 156 156 156
4.2513 -1.2744 0.0000 156 156 156
4.2729 -1.2097 0.0000 156 156 156
4.2935 -1.1445 0.0000 156 156 156
4.3129 -1.0790 0.0000 156 156 156
4.3311 -1.0132 0.0000 156 156 156
4.3482 -0.9470 0.0000 156 156 156
4.3642 -0.8806 0.0000 156 156 156
4.3790 -0.8139 0.0000 156 156 156
4.3926 -0.7469 0.0000 156 156 156
4.4051 -0.6798 0.0000 156 156 156
4.4163 -0.6124 0.0000 156 156 156
4.2975 -0.5267 0.0206 160 160 160
4.2961 -0.4600 0.0222 160 160 160
4.4431 -0.4092 0.0000 156 156 156
4.4496 -0.3412 0.0000 156 156 156
4.4550 -0.2731 0.0000 156 156 156
4.4592 -0.2049 0.0000 156 156 156
4.4621 -0.1366 0.0000 156 156 156
4.4639 -0.0683 0.0000 156 156 156
5.5995 0.0000 0.0000 125 125 125
5.5987 0.0881 0.0000 125 125 125
5.5964 0.1762 0.0000 125 125 125
5.5926 0.2643 0.0000 125 125 125
5.5872 0.3522 0.0000 125 125 125
5.3957 0.4239 0.0227 130 130 130
4.5460 0.4200 0.1266 154 154 154
4.2504 0.4543 0.1622 163 163 163
4.2503 0.5200 0.1612 162 162 162
5.5373 0.7899 0.0000 125 125 125
5.5228 0.8768 0.0000 125 125 125
5.5067 0.9635 0.0000 125 125 125
5.4892 1.0498 0.0000 125 125 125
5.4701 1.1359 0.0000 125 125 125
5.4495 1.2216 0.0000 125 125 125
5.4274 1.3069 0.0000 125 125 125
5.4039 1.3918 0.0000 125 125 125
5.3789 1.4763 0.0000 125 125 125
5.3524 1.5604 0.0000 125 125 125
5.3244 1.6440 0.0000 125 125 125
5.2950 1.7270 0.0000 125 125 125
5.2641 1.8096 0.0000 125 125 125
5.2318 1.8916 0.0000 125 125 125
5.1981 1.9730 0.0000 125 125 125
5.1629 2.0538 0.0000 125 125 125
5.1264 2.1340 0.0000 125 125 125
5.0885 2.2136 0.0000 125 125 125
5.0491 2.2924 0.0000 125 125 125
5.0084 2.3706 0.0000 125 125 125
4.9664 2.4480 0.0000 125 125 125
4.7935 2.4500 0.0184 129 129 129
4.6275 2.4500 0.0359 132 132 132
4.4708 2.4500 0.0523 136 136 136
4.3227 2.4500 0.0677 139 139 139
4.1823 2.4500 0.0820 143 143 143
4.0490 2.4500 0.0955 146 146 146
3.9221 2.4500 0.1082 149 149 149
3.8013 2.4500 0.1201 152 152 152
3.6859 2.4500 0.1314 155 155 155
3.5755 2.4500 0.1420 157 157 157
3.4698 2.4500 0.1520 160 160 160
3.3684 2.4500 0.1615 162 162 162
3.2710 2.4500 0.1704 165 165 165
3.1773 2.4500 0.1789 167 167 167
3.0870 2.4500 0.1869 169 169 169
3.0000 2.4500 0.1946 171 171 171
2.9159 2.4500 0.2018 173 173 173
2.8347 2.4500 0.2087 175 175 175
2.7560 2.4500 0.2152 176 176 176
2.6798 2.4500 0.2214 178 178 178
2.6058 2.4500 0.2273 180 180 180
2.5340 2.4500 0.2329 181 181 181
2.4641 2.4500 0.2383 183 183 183
2.3962 2.4500 0.2433 184 184 184
2.3300 2.4500 0.2482 185 185 185
2.2655 2.4500 0.2528 187 187 187
2.2025 2.4500 0.2571 188 188 188
2.1410 2.4500 0.2613 189 189 189
2.0809 2.4500 0.2653 190 190 190
2.0221 2.4500 0.2691 191 191 191
1.9645 2.4500 0.2726 192 192 192
1.9081 2.4500 0.2761 193 193 193
1.8527 2.4500 0.2793 194 194 194
1.7983 2.4500 0.2824 195 195 195
1.7449 2.4500 0.2853 195 195 195
1.6925 2.4500 0.2881 196 196 196
1.6408 2.4500 0.2907 197 197 197
1.5900 2.4500 0.2932 198 198 198
1.5399 2.4500 0.2956 198 198 198
1.4905 2.4500 0.2978 199 199 199
1.4417 2.4500 0.2999 199 199 199
1.3936 2.4500 0.3018 200 200 200
1.3461 2.4500 0.3037 200 200 200
1.2990 2.4500 0.3054 201 201 201
1.2525 2.4500 0.3071 201 201 201
1.2065 2.4500 0.3086 202 202 202
1.1609 2.4500 0.3100 202 202 202
1.1156 2.4500 0.3113 202 202 202
1.0708 2.4500 0.3125 203 203 203
1.0262 2.4500 0.3135 203 203 203
0.9820 2.4500 0.3145 203 203 203
0.9380 2.4500 0.3154 204 204 204
0.8943 2.4500 0.3162 204 204 204
0.8508 2.4500 0.3169 204 204 204
0.8075 2.4500 0.3175 204 204 204
0.7643 2.4500 0.3180 204 204 204
0.7213 2.4500 0.3184 204 204 204
0.6784 2.4500 0.3188 204 204 204
0.6356 2.4500 0.3190 204 204 204
0.5928 2.4500 0.3191 205 205 205
0.5500 2.4500 0.3192 205 205 205
0.5072 2.4500 0.3191 205 205 205
0.4644 2.4500 0.3190 204 204 204
0.4216 2.4500 0.3188 204 204 204
0.3787 2.4500 0.3184 204 204 204
0.3357 2.4500 0.3180 204 204 204
0.2925 2.4500 0.3175 204 204 204
0.2492 2.4500 0.3169 204 204 204
0.2057 2.4500 0.3162 204 204 204
0.1620 2.4500 0.3154 204 204 204
0.1180 2.4500 0.3145 203 203 203
0.0738 2.4500 0.3135 203 203 203
0.0292 2.4500 0.3125 203 203 203
-0.0156 2.4500 0.3113 202 202 202
-0.0609 2.4500 0.3100 202 202 202
-0.1065 2.4500 0.3086 202 202 202
-0.1525 2.4500 0.3071 201 201 201
-0.1990 2.4500 0.3054 201 201 201
-0.2461 2.4500 0.3037 200 200 200
-0.2936 2.4500 0.3018 200 200 200
-0.3417 2.4500 0.2999 199 199 199
-0.3905 2.4500 0.2978 199 199 199
-0.4399 2.4500 0.2956 198 198 198
-0.4900 2.4500 0.2932 198 198 198
-0.5408 2.4500 0.2907 197 197 197
-0.5925 2.4500 0.2881 196 196 196
-0.6449 2.4500 0.2853 195 195 195
-0.6983 2.4500 0.2824 195 195 195
-0.7527 2.4500 0.2793 194 194 194
-0.8081 2.4500 0.2761 193 193 193
-0.8645 2.4500 0.2726 192 192 192
-0.9221 2.4500 0.2691 191 191 191
-0.9809 2.4500 0.2653 190 190 190
-1.0410 2.4500 0.2613 189 189 189
-1.1025 2.4500 0.2571 188 188 188
-1.1655 2.4500 0.2528 187 187 187
-1.2300 2.4500 0.2482 185 185 185
-1.2962 2.4500 0.2433 184 184 184
-1.3641 2.4500 0.2383 183 183 183
-1.4340 2.4500 0.2329 181 181 181
-1.5058 2.4500 0.2273 180 180 180
-1.5798 2.4500 0.2214 178 178 178
-1.6560 2.4500 0.2152 176 176 176
-1.7347 2.4500 0.2087 175 175 175
-1.8159 2.4500 0.2018 173 173 173
-1.9000 2.4500 0.1946 171 171 171
-1.9870 2.4500 0.1869 169 169 169
-2.0773 2.4500 0.1789 167 167 167
-2.1710 2.4500 0.1704 165 165 165
-2.2684 2.4500 0.1615 162 162 162
-2.3698 2.4500 0.1520 160 160 160
-2.4755 2.4500 0.1420 157 157 157
-2.5859 2.4500 0.1314 155 155 155
-2.7013 2.4500 0.1201 152 152 152
-2.8221 2.4500 0.1082 149 149 149
-2.9490 2.4500 0.0955 146 146 146
-3.0823 2.4500 0.0820 143 143 143
-3.2227 2.4500 0.0677 139 139 139
-3.3708 2.4500 0.0523 136 136 136
-3.5275 2.4500 0.0359 132 132 132
-3.6935 2.4500 0.0184 129 129 129
-3.8664 2.4480 0.0000 125 125 125
-3.9084 2.3706 0.0000 125 125 125
-3.9491 2.2924 0.0000 125 125 125
-3.9885 2.2136 0.0000 125 125 125
-4.0264 2.1340 0.0000 125 125 125
-4.0629 2.0538 0.0000 125 125 125
-4.0981 1.9730 0.0000 125 125 125
-4.1318 1.8916 0.0000 125 125 125
-4.1641 1.8096 0.0000 125 125 125
-4.1950 1.7270 0.0000 125 125 125
-4.2244 1.6440 0.0000 125 125 125
-4.2524 1.5604 0.0000 125 125 125
-4.2789 1.4763 0.0000 125 125 125
-4.3039 1.3918 0.0000 125 125 125
-4.3274 1.3069 0.0000 125 125 125
-4.3495 1.2216 0.0000 125 125 125
-4.3701 1.1359 0.0000 125 125 125
-4.3892 1.0498 0.0000 125 125 125
-4.4067 0.9635 0.0000 125 125 125
-4.4228 0.8768 0.0000 125 125 125
-4.4373 0.7899 0.0000 125 125 125
-4.4504 0.7028 0.0000 125 125 125
-4.4619 0.6154 0.0000 125 125 125
-4.4718 0.5278 0.0000 125 125 125
-4.4803 0.4401 0.0000 125 125 125
-4.4872 0.3522 0.0000 125 125 125
-4.4926 0.2643 0.0000 125 125 125
-4.4964 0.1762 0.0000 125 125 125
-4.4987 0.0881 0.0000 125 125 125
-4.4995 0.0000 0.0000 125 125 125
-4.4987 -0.0881 0.0000 125 125 125
-4.4964 -0.1762 0.0000 125 125 125
-4.4926 -0.2643 0.0000 125 125 125
-4.4872 -0.3522 0.0000 125 125 125
-4.4803 -0.4401 0.0000 125 125 125
-4.4718 -0.5278 0.0000 125 125 125
-4.4619 -0.6154 0.0000 125 125 125
-4.4504 -0.7028 0.0000 125 125 125
-4.4373 -0.7899 0.0000 125 125 125
-4.4228 -0.8768 0.0000 125 125 125
-4.4067 -0.9635 0.0000 125 125 125
-4.3892 -1.0498 0.0000 125 125 125
-4.3701 -1.1359 0.0000 125 125 125
-4.3495 -1.2216 0.0000 125 125 125
-4.3274 -1.3069 0.0000 125 125 125
-4.3039 -1.3918 0.0000 125 125 125
-4.2789 -1.4763 0.0000 125 125 125
-4.2524 -1.5604 0.0000 125 125 125
-4.2244 -1.6440 0.0000 125 125 125
-4.1950 -1.7270 0.0000 125 125 125
-4.1641 -1.8096 0.0000 125 125 125
-4.1318 -1.8916 0.0000 125 125 125
-4.0981 -1.9730 0.0000 125 125 125
-4.0629 -2.0538 0.0000 125 125 125
-4.0264 -2.1340 0.0000 125 125 125
-3.9885 -2.2136 0.0000 125 125 125
-3.9491 -2.2924 0.0000 125 125 125
-3.9084 -2.3706 0.0000 125 125 125
-3.8664 -2.4480 0.0000 125 125 125
-3.6935 -2.4500 0.0184 129 129 129
-3.5275 -2.4500 0.0359 132 132 132
-3.3708 -2.4500 0.0523 136 136 136
-3.2227 -2.4500 0.0677 139 139 139
-3.0823 -2.4500 0.0820 143 143 143
-2.9490 -2.4500 0.0955 146 146 146
-2.8221 -2.4500 0.1082 149 149 149
-2.7013 -2.4500 0.1201 152 152 152
-2.5859 -2.4500 0.1314 155 155 155
-2.4755 -2.4500 0.1420 157 157 157
-2.3698 -2.4500 0.1520 160 160 160
-2.2684 -2.4500 0.1615 162 162 162
-2.1710 -2.4500 0.1704 165 165 165
-2.0773 -2.4500 0.1789 167 167 167
-1.9870 -2.4500 0.1869 169 169 169
-1.9000 -2.4500 0.1946 171 171 171
-1.8159 -2.4500 0.2018 173 173 173
-1.7347 -2.4500 0.2087 175 175 175
-1.6560 -2.4500 0.2152 176 176 176
-1.5798 -2.4500 0.2214 178 178 178
-1.5058 -2.4500 0.2273 180 180 180
-1.4340 -2.4500 0.2329 181 181 181
-1.3641 -2.4500 0.2383 183 183 183
-1.2962 -2.4500 0.2433 184 184 184
-1.2300 -2.4500 0.2482 185 185 185
-1.1655 -2.4500 0.2528 187 187 187
-1.1025 -2.4500 0.2571 188 188 188
-1.0410 -2.4500 0.2613 189 189 189
-0.9809 -2.4500 0.2653 190 190 190
-0.9221 -2.4500 0.2691 191 191 191
-0.8645 -2.4500 0.2726 192 192 192
-0.8081 -2.4500 0.2761 193 193 193
-0.7527 -2.4500 0.2793 194 194 194
-0.6983 -2.4500 0.2824 195 195 195
-0.6449 -2.4500 0.2853 195 195 195
-0.5925 -2.4500 0.2881 196 196 196
-0.5408 -2.4500 0.2907 197 197 197
-0.4900 -2.4500 0.2932 198 198 198
-0.4399 -2.4500 0.2956 198 198 198
-0.3905 -2.4500 0.2978 199 199 199
-0.3417 -2.4500 0.2999 199 199 199
-0.2936 -2.4500 0.3018 200 200 200
-0.2461 -2.4500 0.3037 200 200 200
-0.1990 -2.4500 0.3054 201 201 201
-0.1525 -2.4500 0.3071 201 201 201
-0.1065 -2.4500 0.3086 202 202 202
-0.0609 -2.4500 0.3100 202 202 202
-0.0156 -2.4500 0.3113 202 202 202
0.0292 -2.4500 0.3125 203 203 203
0.0738 -2.4500 0.3135 203 203 203
0.1180 -2.4500 0.3145 203 203 203
0.1620 -2.4500 0.3154 204 204 204
0.2057 -2.4500 0.3162 204 204 204
0.2492 -2.4500 0.3169 204 204 204
0.2925 -2.4500 0.3175 204 204 204
0.3357 -2.4500 0.3180 204 204 204
0.3787 -2.4500 0.3184 204 204 204
0.4216 -2.4500 0.3188 204 204 204
0.4644 -2.4500 0.3190 204 204 204
0.5072 -2.4500 0.3191 205 205 205
0.5500 -2.4500 0.3192 205 205 205
0.5928 -2.4500 0.3191 205 205 205
0.6356 -2.4500 0.3190 204 204 204
0.6784 -2.4500 0.3188 204 204 204
0.7213 -2.4500 0.3184 204 204 204
0.7643 -2.4500 0.3180 204 204 204
0.8075 -2.4500 0.3175 204 204 204
0.8508 -2.4500 0.3169 204 204 204
0.8943 -2.4500 0.3162 204 204 204
0.9380 -2.4500 0.3154 204 204 204
0.9820 -2.4500 0.3145 203 203 203
1.0262 -2.4500 0.3135 203 203 203
1.0708 -2.4500 0.3125 203 203 203
1.1156 -2.4500 0.3113 202 202 202
1.1609 -2.4500 0.3100 202 202 202
1.2065 -2.4500 0.3086 202 202 202
1.2525 -2.4500 0.3071 201 201 201
1.2990 -2.4500 0.3054 201 201 201
1.3461 -2.4500 0.3037 200 200 200
1.3936 -2.4500 0.3018 200 200 200
1.4417 -2.4500 0.2999 199 199 199
1.4905 -2.4500 0.2978 199 199 199
1.5399 -2.4500 0.2956 198 198 198
1.5900 -2.4500 0.2932 198 198 198
1.6408 -2.4500 0.2907 197 197 197
1.6925 -2.4500 0.2881 196 196 196
1.7449 -2.4500 0.2853 195 195 195
1.7983 -2.4500 0.2824 195 195 195
1.8527 -2.4500 0.2793 194 194 194
1.9081 -2.4500 0.2761 193 193 193
1.9645 -2.4500 0.2726 192 192 192
2.0221 -2.4500 0.2691 191 191 191
2.0809 -2.4500 0.2653 190 190 190
2.1410 -2.4500 0.2613 189 189 189
2.2025 -2.4500 0.2571 188 188 188
2.2655 -2.4500 0.2528 187 187 187
2.3300 -2.4500 0.2482 185 185 185
2.3962 -2.4500 0.2433 184 184 184
2.4641 -2.4500 0.2383 183 183 183
2.5340 -2.4500 0.2329 181 181 181
2.6058 -2.4500 0.2273 180 180 180
2.6798 -2.4500 0.2214 178 178 178
2.7560 -2.4500 0.2152 176 176 176
2.8347 -2.4500 0.2087 175 175 175
2.9159 -2.4500 0.2018 173 173 173
3.0000 -2.4500 0.1946 171 171 171
3.0870 -2.4500 0.1869 169 169 169
3.1773 -2.4500 0.1789 167 167 167
3.2710 -2.4500 0.1704 165 165 165
3.3684 -2.4500 0.1615 162 162 162
3.4698 -2.4500 0.1520 160 160 160
3.5755 -2.4500 0.1420 157 157 157
3.6859 -2.4500 0.1314 155 155 155
3.8013 -2.4500 0.1201 152 152 152
3.9221 -2.4500 0.1082 149 149 149
4.0490 -2.4500 0.0955 146 146 146
4.1823 -2.4500 0.0820 143 143 143
4.3227 -2.4500 0.0677 139 139 139
4.4708 -2.4500 0.0523 136 136 136
4.6275 -2.4500 0.0359 132 132 132
4.7935 -2.4500 0.0184 129 129 129
4.9664 -2.4480 0.0000 125 125 125
5.0084 -2.3706 0.0000 125 125 125
5.0491 -2.2924 0.0000 125 125 125
5.0885 -2.2136 0.0000 125 125 125
5.1264 -2.1340 0.0000 125 125 125
5.1629 -2.0538 0.0000 125 125 125
5.1981 -1.9730 0.0000 125 125 125
5.2318 -1.8916 0.0000 125 125 125
5.2641 -1.8096 0.0000 125 125 125
5.2950 -1.7270 0.0000 125 125 125
5.3244 -1.6440 0.0000 125 125 125
5.3524 -1.5604 0.0000 125 125 125
5.3789 -1.4763 0.0000 125 125 125
5.4039 -1.3918 0.0000 125 125 125
5.4274 -1.3069 0.0000 125 125 125
5.4495 -1.2216 0.0000 125 125 125
5.4701 -1.1359 0.0000 125 125 125
5.4892 -1.0498 0.0000 125 125 125
5.5067 -0.9635 0.0000 125 125 125
5.5228 -0.8768 0.0000 125 125 125
5.5373 -0.7899 0.0000 125 125 125
4.2503 -0.5200 0.1612 162 162 162
4.2504 -0.4543 0.1622 163 163 163
4.5460 -0.4200 0.1266 154 154 154
5.3957 -0.4239 0.0227 130 130 130
5.5872 -0.3522 0.0000 125 125 125
5.5926 -0.2643 0.0000 125 125 125
5.5964 -0.1762 0.0000 125 125 125
5.5987 -0.0881 0.0000 125 125 125
4.3000 0.0000 0.2919 162 162 162
4.3000 0.0655 0.2919 162 162 162
4.3000 0.1310 0.2917 162 162 162
4.3000 0.1965 0.2915 162 162 162
4.3000 0.2622 0.2911 162 162 162
4.3000 0.3281 0.2907 162 162 162
4.3000 0.3941 0.2901 162 162 162
4.3061 0.4612 0.2889 161 161 161
4.3054 0.5278 0.2882 161 161 161
7.5494 1.1086 0.0000 84 84 84
7.5290 1.2306 0.0000 84 84 84
7.5064 1.3522 0.0000 84 84 84
7.4818 1.4734 0.0000 84 84 84
7.4550 1.5941 0.0000 84 84 84
7.4261 1.7144 0.0000 84 84 84
7.3952 1.8342 0.0000 84 84 84
7.3621 1.9533 0.0000 84 84 84
7.3270 2.0719 0.0000 84 84 84
7.2898 2.1899 0.0000 84 84 84
7.2505 2.3072 0.0000 84 84 84
7.2093 2.4238 0.0000 84 84 84
7.1659 2.5396 0.0000 84 84 84
7.1206 2.6547 0.0000 84 84 84
7.0733 2.7690 0.0000 84 84 84
7.0240 2.8824 0.0000 84 84 84
5.8040 2.4500 0.1128 108 108 108
5.5732 2.4500 0.1310 112 112 112
5.3584 2.4500 0.1479 117 117 117
5.1578 2.4500 0.1634 121 121 121
4.9699 2.4500 0.1779 125 125 125
4.7935 2.4500 0.1913 129 129 129
4.6275 2.4500 0.2038 133 133 133
4.4708 2.4500 0.2155 136 136 136
4.3227 2.4500 0.2264 140 140 140
4.1823 2.4500 0.2367 143 143 143
4.0490 2.4500 0.2463 146 146 146
3.9221 2.4500 0.2553 149 149 149
3.8013 2.4500 0.2638 152 152 152
3.6859 2.4500 0.2718 155 155 155
3.5755 2.4500 0.2794 158 158 158
3.4698 2.4500 0.2865 160 160 160
3.3684 2.4500 0.2933 163 163 163
3.2710 2.4500 0.2997 165 165 165
3.1773 2.4500 0.3057 167 167 167
3.0870 2.4500 0.3114 169 169 169
3.0000 2.4500 0.3169 171 171 171
2.9159 2.4500 0.3220 173 173 173
2.8347 2.4500 0.3269 175 175 175
2.7560 2.4500 0.3316 177 177 177
2.6798 2.4500 0.3360 178 178 178
2.6058 2.4500 0.3402 180 180 180
2.5340 2.4500 0.3442 182 182 182
2.4641 2.4500 0.3480 183 183 183
2.3962 2.4500 0.3516 184 184 184
2.3300 2.4500 0.3551 186 186 186
2.2655 2.4500 0.3583 187 187 187
2.2025 2.4500 0.3615 188 188 188
2.1410 2.4500 0.3644 189 189 189
2.0809 2.4500 0.3672 190 190 190
2.0221 2.4500 0.3699 191 191 191
1.9645 2.4500 0.3725 192 192 192
1.9081 2.4500 0.3749 193 193 193
1.8527 2.4500 0.3772 194 194 194
1.7983 2.4500 0.3794 195 195 195
1.7449 2.4500 0.3815 196 196 196
1.6925 2.4500 0.3835 196 196 196
1.6408 2.4500 0.3854 197 197 197
1.5900 2.4500 0.3871 198 198 198
1.5399 2.4500 0.3888 198 198 198
1.4905 2.4500 0.3904 199 199 199
1.4417 2.4500 0.3919 200 200 200
1.3936 2.4500 0.3933 200 200 200
1.3461 2.4500 0.3946 201 201 201
1.2990 2.4500 0.3959 201 201 201
1.2525 2.4500 0.3970 202 202 202
1.2065 2.4500 0.3981 202 202 202
1.1609 2.4500 0.3991 202 202 202
1.1157 2.4502 0.4000 203 203 203
1.0728 2.4597 0.4000 203 203 203
1.0298 2.4684 0.4000 203 203 203
0.9867 2.4764 0.4000 203 203 203
0.9434 2.4837 0.4000 203 203 203
0.9000 2.4901 0.4000 203 203 203
0.8565 2.4959 0.4000 203 203 203
0.8128 2.5008 0.4000 203 203 203
0.7692 2.5050 0.4000 203 203 203
0.7254 2.5085 0.4000 203 203 203
0.6816 2.5112 0.4000 203 203 203
0.6378 2.5131 0.4000 203 203 203
0.5939 2.5142 0.4000 203 203 203
0.5500 2.5146 0.4000 203 203 203
0.5061 2.5142 0.4000 203 203 203
0.4622 2.5131 0.4000 203 203 203
0.4184 2.5112 0.4000 203 203 203
0.3746 2.5085 0.4000 203 203 203
0.3308 2.5050 0.4000 203 203 203
0.2872 2.5008 0.4000 203 203 203
0.2435 2.4959 0.4000 203 203 203
0.2000 2.4901 0.4000 203 203 203
0.1566 2.4837 0.4000 203 203 203
0.1133 2.4764 0.4000 203 203 203
0.0702 2.4684 0.4000 203 203 203
0.0272 2.4597 0.4000 203 203 203
-0.0157 2.4502 0.4000 203 203 203
-0.0609 2.4500 0.3991 202 202 202
-0.1065 2.4500 0.3981 202 202 202
-0.1525 2.4500 0.3970 202 202 202
-0.1990 2.4500 0.3959 201 201 201
-0.2461 2.4500 0.3946 201 201 201
-0.2936 2.4500 0.3933 200 200 200
-0.3417 2.4500 0.3919 200 200 200
-0.3905 2.4500 0.3904 199 199 199
-0.4399 2.4500 0.3888 198 198 198
-0.4900 2.4500 0.3871 198 198 198
-0.5408 2.4500 0.3854 197 197 197
-0.5925 2.4500 0.3835 196 196 196
-0.6449 2.4500 0.3815 196 196 196
-0.6983 2.4500 0.3794 195 195 195
-0.7527 2.4500 0.3772 194 194 194
-0.8081 2.4500 0.3749 193 193 193
-0.8645 2.4500 0.3725 192 192 192
-0.9221 2.4500 0.3699 191 191 191
-0.9809 2.4500 0.3672 190 190 190
-1.0410 2.4500 0.3644 189 189 189
-1.1025 2.4500 0.3615 188 188 188
-1.1655 2.4500 0.3583 187 187 187
-1.2300 2.4500 0.3551 186 186 186
-1.2962 2.4500 0.3516 184 184 184
-1.3641 2.4500 0.3480 183 183 183
-1.4340 2.4500 0.3442 182 182 182
-1.5058 2.4500 0.3402 180 180 180
-1.5798 2.4500 0.3360 178 178 178
-1.6560 2.4500 0.3316 177 177 177
-1.7347 2.4500 0.3269 175 175 175
-1.8159 2.4500 0.3220 173 173 173
-1.9000 2.4500 0.3169 171 171 171
-1.9870 2.4500 0.3114 169 169 169
-2.0773 2.4500 0.3057 167 167 167
-2.1710 2.4500 0.2997 165 165 165
-2.2684 2.4500 0.2933 163 163 163
-2.3698 2.4500 0.2865 160 160 160
-2.4755 2.4500 0.2794 158 158 158
-2.5859 2.4500 0.2718 155 155 155
-2.7013 2.4500 0.2638 152 152 152
-2.8221 2.4500 0.2553 149 149 149
-2.9490 2.4500 0.2463 146 146 146
-3.0823 2.4500 0.2367 143 143 143
-3.2227 2.4500 0.2264 140 140 140
-3.3708 2.4500 0.2155 136 136 136
-3.5275 2.4500 0.2038 133 133 133
-3.6935 2.4500 0.1913 129 129 129
-3.8699 2.4500 0.1779 125 125 125
-4.0578 2.4500 0.1634 121 121 121
-4.2584 2.4500 0.1479 117 117 117
-4.4732 2.4500 0.1310 112 112 112
-4.7040 2.4500 0.1128 108 108 108
-4.9528 2.4500 0.0930 103 103 103
-5.2218 2.4500 0.0714 98 98 98
-5.5140 2.4500 0.0478 93 93 93
-5.8325 2.4500 0.0219 88 88 88
-6.1093 2.4238 0.0000 84 84 84
-6.1505 2.3072 0.0000 84 84 84
-6.1898 2.1899 0.0000 84 84 84
-6.2270 2.0719 0.0000 84 84 84
-6.2621 1.9533 0.0000 84 84 84
-6.2952 1.8342 0.0000 84 84 84
-6.3261 1.7144 0.0000 84 84 84
-6.3550 1.5941 0.0000 84 84 84
-6.3818 1.4734 0.0000 84 84 84
-6.4064 1.3522 0.0000 84 84 84
-6.4290 1.2306 0.0000 84 84 84
-6.4494 1.1086 0.0000 84 84 84
-6.4677 0.9863 0.0000 84 84 84
-6.4838 0.8636 0.0000 84 84 84
-6.4978 0.7408 0.0000 84 84 84
-6.5097 0.6176 0.0000 84 84 84
-6.5194 0.4943 0.0000 84 84 84
-6.5269 0.3709 0.0000 84 84 84
-6.5323 0.2473 0.0000 84 84 84
-6.5356 0.1237 0.0000 84 84 84
-6.5366 0.0000 0.0000 84 84 84
-6.5356 -0.1237 0.0000 84 84 84
-6.5323 -0.2473 0.0000 84 84 84
-6.5269 -0.3709 0.0000 84 84 84
-6.5194 -0.4943 0.0000 84 84 84
-6.5097 -0.6176 0.0000 84 84 84
-6.4978 -0.7408 0.0000 84 84 84
-6.4838 -0.8636 0.0000 84 84 84
-6.4677 -0.9863 0.0000 84 84 84
-6.4494 -1.1086 0.0000 84 84 84
-6.4290 -1.2306 0.0000 84 84 84
-6.4064 -1.3522 0.0000 84 84 84
-6.3818 -1.4734 0.0000 84 84 84
-6.3550 -1.5941 0.0000 84 84 84
-6.3261 -1.7144 0.0000 84 84 84
-6.2952 -1.8342 0.0000 84 84 84
-6.2621 -1.9533 0.0000 84 84 84
-6.2270 -2.0719 0.0000 84 84 84
-6.1898 -2.1899 0.0000 84 84 84
-6.1505 -2.3072 0.0000 84 84 84
-6.1093 -2.4238 0.0000 84 84 84
-5.8325 -2.4500 0.0219 88 88 88
-5.5140 -2.4500 0.0478 93 93 93
-5.2218 -2.4500 0.0714 98 98 98
-4.9528 -2.4500 0.0930 103 103 103
-4.7040 -2.4500 0.1128 108 108 108
-4.4732 -2.4500 0.1310 112 112 112
-4.2584 -2.4500 0.1479 117 117 117
-4.0578 -2.4500 0.1634 121 121 121
-3.8699 -2.4500 0.1779 125 125 125
-3.6935 -2.4500 0.1913 129 129 129
-3.5275 -2.4500 0.2038 133 133 133
-3.3708 -2.4500 0.2155 136 136 136
-3.2227 -2.4500 0.2264 140 140 140
-3.0823 -2.4500 0.2367 143 143 143
-2.9490 -2.4500 0.2463 146 146 146
-2.8221 -2.4500 0.2553 149 149 149
-2.7013 -2.4500 0.2638 152 152 152
-2.5859 -2.4500 0.2718 155 155 155
-2.4755 -2.4500 0.2794 158 158 158
-2.3698 -2.4500 0.2865 160 160 160
-2.2684 -2.4500 0.2933 163 163 163
-2.1710 -2.4500 0.2997 165 165 165
-2.0773 -2.4500 0.3057 167 167 167
-1.9870 -2.4500 0.3114 169 169 169
-1.9000 -2.4500 0.3169 171 171 171
-1.8159 -2.4500 0.3220 173 173 173
-1.7347 -2.4500 0.3269 175 175 175
-1.6560 -2.4500 0.3316 177 177 177
-1.5798 -2.4500 0.3360 178 178 178
-1.5058 -2.4500 0.3402 180 180 180
-1.4340 -2.4500 0.3442 182 182 182
-1.3641 -2.4500 0.3480 183 183 183
-1.2962 -2.4500 0.3516 184 184 184
-1.2300 -2.4500 0.3551 186 186 186
-1.1655 -2.4500 0.3583 187 187 187
-1.1025 -2.4500 0.3615 188 188 188
-1.0410 -2.4500 0.3644 189 189 189
-0.9809 -2.4500 0.3672 190 190 190
-0.9221 -2.4500 0.3699 191 191 191
-0.8645 -2.4500 0.3725 192 192 192
-0.8081 -2.4500 0.3749 193 193 193
-0.7527 -2.4500 0.3772 194 194 194
-0.6983 -2.4500 0.3794 195 195 195
-0.6449 -2.4500 0.3815 196 196 196
-0.5925 -2.4500 0.3835 196 196 196
-0.5408 -2.4500 0.3854 197 197 197
-0.4900 -2.4500 0.3871 198 198 198
-0.4399 -2.4500 0.3888 198 198 198
-0.3905 -2.4500 0.3904 199 199 199
-0.3417 -2.4500 0.3919 200 200 200
-0.2936 -2.4500 0.3933 200 200 200
-0.2461 -2.4500 0.3946 201 201 201
-0.1990 -2.4500 0.3959 201 201 201
-0.1525 -2.4500 0.3970 202 202 202
-0.1065 -2.4500 0.3981 202 202 202
-0.0609 -2.4500 0.3991 202 202 202
-0.0157 -2.4502 0.4000 203 203 203
0.0272 -2.4597 0.4000 203 203 203
0.0702 -2.4684 0.4000 203 203 203
0.1133 -2.4764 0.4000 203 203 203
0.1566 -2.4837 0.4000 203 203 203
0.2000 -2.4901 0.4000 203 203 203
0.2435 -2.4959 0.4000 203 203 203
0.2872 -2.5008 0.4000 203 203 203
0.3308 -2.5050 0.4000 203 203 203
0.3746 -2.5085 0.4000 203 203 203
0.4184 -2.5112 0.4000 203 203 203
0.4622 -2.5131 0.4000 203 203 203
0.5061 -2.5142 0.4000 203 203 203
0.5500 -2.5146 0.4000 203 203 203
0.5939 -2.5142 0.4000 203 203 203
0.6378 -2.5131 0.4000 203 203 203
0.6816 -2.5112 0.4000 203 203 203
0.7254 -2.5085 0.4000 203 203 203
0.7692 -2.5050 0.4000 203 203 203
0.8128 -2.5008 0.4000 203 203 203
0.8565 -2.4959 0.4000 203 203 203
0.9000 -2.4901 0.4000 203 203 203
0.9434 -2.4837 0.4000 203 203 203
0.9867 -2.4764 0.4000 203 203 203
1.0298 -2.4684 0.4000 203 203 203
1.0728 -2.4597 0.4000 203 203 203
1.1157 -2.4502 0.4000 203 203 203
1.1609 -2.4500 0.3991 202 202 202
1.2065 -2.4500 0.3981 202 202 202
1.2525 -2.4500 0.3970 202 202 202
1.2990 -2.4500 0.3959 201 201 201
1.3461 -2.4500 0.3946 201 201 201
1.3936 -2.4500 0.3933 200 200 200
1.4417 -2.4500 0.3919 200 200 200
1.4905 -2.4500 0.3904 199 199 199
1.5399 -2.4500 0.3888 198 198 198
1.5900 -2.4500 0.3871 198 198 198
1.6408 -2.4500 0.3854 197 197 197
1.6925 -2.4500 0.3835 196 196 196
1.7449 -2.4500 0.3815 196 196 196
1.7983 -2.4500 0.3794 195 195 195
1.8527 -2.4500 0.3772 194 194 194
1.9081 -2.4500 0.3749 193 193 193
1.9645 -2.4500 0.3725 192 192 192
2.0221 -2.4500 0.3699 191 191 191
2.0809 -2.4500 0.3672 190 190 190
2.1410 -2.4500 0.3644 189 189 189
2.2025 -2.4500 0.3615 188 188 188
2.2655 -2.4500 0.3583 187 187 187
2.3300 -2.4500 0.3551 186 186 186
2.3962 -2.4500 0.3516 184 184 184
2.4641 -2.4500 0.3480 183 183 183
2.5340 -2.4500 0.3442 182 182 182
2.6058 -2.4500 0.3402 180 180 180
2.6798 -2.4500 0.3360 178 178 178
2.7560 -2.4500 0.3316 177 177 177
2.8347 -2.4500 0.3269 175 175 175
2.9159 -2.4500 0.3220 173 173 173
3.0000 -2.4500 0.3169 171 171 171
3.0870 -2.4500 0.3114 169 169 169
3.1773 -2.4500 0.3057 167 167 167
3.2710 -2.4500 0.2997 165 165 165
3.3684 -2.4500 0.2933 163 163 163
3.4698 -2.4500 0.2865 160 160 160
3.5755 -2.4500 0.2794 158 158 158
3.6859 -2.4500 0.2718 155 155 155
3.8013 -2.4500 0.2638 152 152 152
3.9221 -2.4500 0.2553 149 149 149
4.0490 -2.4500 0.2463 146 146 146
4.1823 -2.4500 0.2367 143 143 143
4.3227 -2.4500 0.2264 140 140 140
4.4708 -2.4500 0.2155 136 136 136
4.6275 -2.4500 0.2038 133 133 133
4.7935 -2.4500 0.1913 129 129 129
4.9699 -2.4500 0.1779 125 125 125
5.1578 -2.4500 0.1634 121 121 121
5.3584 -2.4500 0.1479 117 117 117
5.5732 -2.4500 0.1310 112 112 112
5.8040 -2.4500 0.1128 108 108 108
7.0240 -2.8824 0.0000 84 84 84
7.0733 -2.7690 0.0000 84 84 84
7.1206 -2.6547 0.0000 84 84 84
7.1659 -2.5396 0.0000 84 84 84
7.2093 -2.4238 0.0000 84 84 84
7.2505 -2.3072 0.0000 84 84 84
7.2898 -2.1899 0.0000 84 84 84
7.3270 -2.0719 0.0000 84 84 84
7.3621 -1.9533 0.0000 84 84 84
7.3952 -1.8342 0.0000 84 84 84
7.4261 -1.7144 0.0000 84 84 84
7.4550 -1.5941 0.0000 84 84 84
7.4818 -1.4734 0.0000 84 84 84
7.5064 -1.3522 0.0000 84 84 84
7.5290 -1.2306 0.0000 84 84 84
7.5494 -1.1086 0.0000 84 84 84
4.3054 -0.5278 0.2882 161 161 161
4.3061 -0.4612 0.2889 161 161 161
4.3000 -0.3941 0.2901 162 162 162
4.3000 -0.3281 0.2907 162 162 162
4.3000 -0.2622 0.2911 162 162 162
4.3000 -0.1965 0.2915 162 162 162
4.3000 -0.1310 0.2917 162 162 162
4.3000 -0.0655 0.2919 162 162 162
4.7479 0.0000 0.4000 149 149 149
4.7472 0.0733 0.4000 149 149 149
4.7453 0.1465 0.4000 149 149 149
4.7421 0.2197 0.4000 149 149 149
4.7376 0.2928 0.4000 149 149 149
4.7319 0.3659 0.4000 149 149 149
4.7249 0.4388 0.4000 149 149 149
12.2921 1.4418 0.0000 38 38 38
12.2652 1.6465 0.0000 38 38 38
12.2347 1.8507 0.0000 38 38 38
12.2006 2.0543 0.0000 38 38 38
12.1629 2.2573 0.0000 38 38 38
12.1218 2.4597 0.0000 38 38 38
12.0771 2.6612 0.0000 38 38 38
12.0289 2.8620 0.0000 38 38 38
11.9772 3.0619 0.0000 38 38 38
11.9220 3.2609 0.0000 38 38 38
11.8634 3.4588 0.0000 38 38 38
11.8013 3.6558 0.0000 38 38 38
11.7358 3.8516 0.0000 38 38 38
11.6669 4.0462 0.0000 38 38 38
11.5945 4.2396 0.0000 38 38 38
11.5189 4.4317 0.0000 38 38 38
11.4399 4.6225 0.0000 38 38 38
11.3575 4.8118 0.0000 38 38 38
5.8040 2.4500 0.3162 108 108 108
5.5732 2.4500 0.3271 113 113 113
5.3584 2.4500 0.3372 117 117 117
5.1578 2.4500 0.3465 121 121 121
4.9699 2.4500 0.3552 125 125 125
4.7935 2.4500 0.3632 129 129 129
4.6275 2.4500 0.3707 133 133 133
4.4708 2.4500 0.3777 137 137 137
4.3227 2.4500 0.3842 140 140 140
4.1823 2.4500 0.3904 144 144 144
4.0490 2.4500 0.3961 147 147 147
3.9461 2.4674 0.4000 149 149 149
3.9026 2.5263 0.4000 149 149 149
9.8724 7.2835 0.0000 38 38 38
9.7439 7.4451 0.0000 38 38 38
9.6125 7.6044 0.0000 38 38 38
9.4784 7.7614 0.0000 38 38 38
9.3416 7.9160 0.0000 38 38 38
9.2021 8.0682 0.0000 38 38 38
9.0600 8.2180 0.0000 38 38 38
8.9153 8.3653 0.0000 38 38 38
8.7680 8.5100 0.0000 38 38 38
8.6182 8.6521 0.0000 38 38 38
8.4660 8.7916 0.0000 38 38 38
8.3114 8.9284 0.0000 38 38 38
8.1544 9.0625 0.0000 38 38 38
7.9951 9.1939 0.0000 38 38 38
7.8335 9.3224 0.0000 38 38 38
7.6697 9.4481 0.0000 38 38 38
7.5037 9.5709 0.0000 38 38 38
7.3356 9.6908 0.0000 38 38 38
7.1654 9.8078 0.0000 38 38 38
6.9932 9.9217 0.0000 38 38 38
6.8191 10.0327 0.0000 38 38 38
6.6431 10.1406 0.0000 38 38 38
6.4652 10.2453 0.0000 38 38 38
6.2854 10.3470 0.0000 38 38 38
6.1040 10.4455 0.0000 38 38 38
5.9208 10.5409 0.0000 38 38 38
5.7361 10.6330 0.0000 38 38 38
5.5497 10.7219 0.0000 38 38 38
5.3618 10.8075 0.0000 38 38 38
5.1725 10.8899 0.0000 38 38 38
4.9817 10.9689 0.0000 38 38 38
4.7896 11.0445 0.0000 38 38 38
4.5962 11.1169 0.0000 38 38 38
4.4016 11.1858 0.0000 38 38 38
4.2058 11.2513 0.0000 38 38 38
4.0088 11.3134 0.0000 38 38 38
3.8109 11.3720 0.0000 38 38 38
3.6119 11.4272 0.0000 38 38 38
3.4120 11.4789 0.0000 38 38 38
3.2112 11.5271 0.0000 38 38 38
3.0097 11.5718 0.0000 38 38 38
2.8073 11.6129 0.0000 38 38 38
2.6043 11.6506 0.0000 38 38 38
2.4007 11.6847 0.0000 38 38 38
2.1965 11.7152 0.0000 38 38 38
1.9918 11.7421 0.0000 38 38 38
1.7866 11.7655 0.0000 38 38 38
1.5811 11.7853 0.0000 38 38 38
1.3752 11.8015 0.0000 38 38 38
1.1692 11.8141 0.0000 38 38 38
0.9629 11.8231 0.0000 38 38 38
0.7565 11.8285 0.0000 38 38 38
0.5500 11.8303 0.0000 38 38 38
0.3435 11.8285 0.0000 38 38 38
0.1371 11.8231 0.0000 38 38 38
-0.0692 11.8141 0.0000 38 38 38
-0.2752 11.8015 0.0000 38 38 38
-0.4811 11.7853 0.0000 38 38 38
-0.6866 11.7655 0.0000 38 38 38
-0.8918 11.7421 0.0000 38 38 38
-1.0965 11.7152 0.0000 38 38 38
-1.3007 11.6847 0.0000 38 38 38
-1.5043 11.6506 0.0000 38 38 38
-1.7073 11.6129 0.0000 38 38 38
-1.9097 11.5718 0.0000 38 38 38
-2.1112 11.5271 0.0000 38 38 38
-2.3120 11.4789 0.0000 38 38 38
-2.5119 11.4272 0.0000 38 38 38
-2.7109 11.3720 0.0000 38 38 38
-2.9088 11.3134 0.0000 38 38 38
-3.1058 11.2513 0.0000 38 38 38
-3.3016 11.1858 0.0000 38 38 38
-3.4962 11.1169 0.0000 38 38 38
-3.6896 11.0445 0.0000 38 38 38
-3.8817 10.9689 0.0000 38 38 38
-4.0725 10.8899 0.0000 38 38 38
-4.2618 10.8075 0.0000 38 38 38
-4.4497 10.7219 0.0000 38 38 38
-4.6361 10.6330 0.0000 38 38 38
-4.8208 10.5409 0.0000 38 38 38
-5.0040 10.4455 0.0000 38 38 38
-5.1854 10.3470 0.0000 38 38 38
-5.3652 10.2453 0.0000 38 38 38
-5.5431 10.1406 0.0000 38 38 38
-5.7191 10.0327 0.0000 38 38 38
-5.8932 9.9217 0.0000 38 38 38
-6.0654 9.8078 0.0000 38 38 38
-6.2356 9.6908 0.0000 38 38 38
-6.4037 9.5709 0.0000 38 38 38
-6.5697 9.4481 0.0000 38 38 38
-6.7335 9.3224 0.0000 38 38 38
-6.8951 9.1939 0.0000 38 38 38
-7.0544 9.0625 0.0000 38 38 38
-7.2114 8.9284 0.0000 38 38 38
-7.3660 8.7916 0.0000 38 38 38
-7.5182 8.6521 0.0000 38 38 38
-7.6680 8.5100 0.0000 38 38 38
-7.8153 8.3653 0.0000 38 38 38
-7.9600 8.2180 0.0000 38 38 38
-8.1021 8.0682 0.0000 38 38 38
-8.2416 7.9160 0.0000 38 38 38
-8.3784 7.7614 0.0000 38 38 38
-8.5125 7.6044 0.0000 38 38 38
-8.6439 7.4451 0.0000 38 38 38
-8.7724 7.2835 0.0000 38 38 38
-2.8026 2.5263 0.4000 149 149 149
-2.8461 2.4674 0.4000 149 149 149
-2.9490 2.4500 0.3961 147 147 147
-3.0823 2.4500 0.3904 144 144 144
-3.2227 2.4500 0.3842 140 140 140
-3.3708 2.4500 0.3777 137 137 137
-3.5275 2.4500 0.3707 133 133 133
-3.6935 2.4500 0.3632 129 129 129
-3.8699 2.4500 0.3552 125 125 125
-4.0578 2.4500 0.3465 121 121 121
-4.2584 2.4500 0.3372 117 117 117
-4.4732 2.4500 0.3271 113 113 113
-4.7040 2.4500 0.3162 108 108 108
-4.9528 2.4500 0.3043 103 103 103
-5.2218 2.4500 0.2914 98 98 98
-5.5140 2.4500 0.2772 93 93 93
-5.8325 2.4500 0.2617 88 88 88
-10.5669 4.0462 0.0000 38 38 38
-10.6358 3.8516 0.0000 38 38 38
-10.7013 3.6558 0.0000 38 38 38
-10.7634 3.4588 0.0000 38 38 38
-10.8220 3.2609 0.0000 38 38 38
-10.8772 3.0619 0.0000 38 38 38
-10.9289 2.8620 0.0000 38 38 38
-10.9771 2.6612 0.0000 38 38 38
-11.0218 2.4597 0.0000 38 38 38
-11.0629 2.2573 0.0000 38 38 38
-11.1006 2.0543 0.0000 38 38 38
-11.1347 1.8507 0.0000 38 38 38
-11.1652 1.6465 0.0000 38 38 38
-11.1921 1.4418 0.0000 38 38 38
-11.2155 1.2366 0.0000 38 38 38
-11.2353 1.0311 0.0000 38 38 38
-11.2515 0.8252 0.0000 38 38 38
-11.2641 0.6192 0.0000 38 38 38
-11.2731 0.4129 0.0000 38 38 38
-11.2785 0.2065 0.0000 38 38 38
-11.2803 0.0000 0.0000 38 38 38
-11.2785 -0.2065 0.0000 38 38 38
-11.2731 -0.4129 0.0000 38 38 38
-11.2641 -0.6192 0.0000 38 38 38
-11.2515 -0.8252 0.0000 38 38 38
-11.2353 -1.0311 0.0000 38 38 38
-11.2155 -1.2366 0.0000 38 38 38
-11.1921 -1.4418 0.0000 38 38 38
-11.1652 -1.6465 0.0000 38 38 38
-11.1347 -1.8507 0.0000 38 38 38
-11.1006 -2.0543 0.0000 38 38 38
-11.0629 -2.2573 0.0000 38 38 38
-11.0218 -2.4597 0.0000 38 38 38
-10.9771 -2.6612 0.0000 38 38 38
-10.9289 -2.8620 0.0000 38 38 38
-10.8772 -3.0619 0.0000 38 38 38
-10.8220 -3.2609 0.0000 38 38 38
-10.7634 -3.4588 0.0000 38 38 38
-10.7013 -3.6558 0.0000 38 38 38
-10.6358 -3.8516 0.0000 38 38 38
-10.5669 -4.0462 0.0000 38 38 38
-5.8325 -2.4500 0.2617 88 88 88
-5.5140 -2.4500 0.2772 93 93 93
-5.2218 -2.4500 0.2914 98 98 98
-4.9528 -2.4500 0.3043 103 103 103
-4.7040 -2.4500 0.3162 108 108 108
-4.4732 -2.4500 0.3271 113 113 113
-4.2584 -2.4500 0.3372 117 117 117
-4.0578 -2.4500 0.3465 121 121 121
-3.8699 -2.4500 0.3552 125 125 125
-3.6935 -2.4500 0.3632 129 129 129
-3.5275 -2.4500 0.3707 133 133 133
-3.3708 -2.4500 0.3777 137 137 137
-3.2227 -2.4500 0.3842 140 140 140
-3.0823 -2.4500 0.3904 144 144 144
-2.9490 -2.4500 0.3961 147 147 147
-2.8461 -2.4674 0.4000 149 149 149
-2.8026 -2.5263 0.4000 149 149 149
-8.7724 -7.2835 0.0000 38 38 38
-8.6439 -7.4451 0.0000 38 38 38
-8.5125 -7.6044 0.0000 38 38 38
-8.3784 -7.7614 0.0000 38 38 38
-8.2416 -7.9160 0.0000 38 38 38
-8.1021 -8.0682 0.0000 38 38 38
-7.9600 -8.2180 0.0000 38 38 38
-7.8153 -8.3653 0.0000 38 38 38
-7.6680 -8.5100 0.0000 38 38 38
-7.5182 -8.6521 0.0000 38 38 38
-7.3660 -8.7916 0.0000 38 38 38
-7.2114 -8.9284 0.0000 38 38 38
-7.0544 -9.0625 0.0000 38 38 38
-6.8951 -9.1939 0.0000 38 38 38
-6.7335 -9.3224 0.0000 38 38 38
-6.5697 -9.4481 0.0000 38 38 38
-6.4037 -9.5709 0.0000 38 38 38
-6.2356 -9.6908 0.0000 38 38 38
-6.0654 -9.8078 0.0000 38 38 38
-5.8932 -9.9217 0.0000 38 38 38
-5.7191 -10.0327 0.0000 38 38 38
-5.5431 -10.1406 0.0000 38 38 38
-5.3652 -10.2453 0.0000 38 38 38
-5.1854 -10.3470 0.0000 38 38 38
-5.0040 -10.4455 0.0000 38 38 38
-4.8208 -10.5409 0.0000 38 38 38
-4.6361 -10.6330 0.0000 38 38 38
-4.4497 -10.7219 0.0000 38 38 38
-4.2618 -10.8075 0.0000 38 38 38
-4.0725 -10.8899 0.0000 38 38 38
-3.8817 -10.9689 0.0000 38 38 38
-3.6896 -11.0445 0.0000 38 38 38
-3.4962 -11.1169 0.0000 38 38 38
-3.3016 -11.1858 0.0000 38 38 38
-3.1058 -11.2513 0.0000 38 38 38
-2.9088 -11.3134 0.0000 38 38 38
-2.7109 -11.3720 0.0000 38 38 38
-2.5119 -11.4272 0.0000 38 38 38
-2.3120 -11.4789 0.0000 38 38 38
-2.1112 -11.5271 0.0000 38 38 38
-1.9097 -11.5718 0.0000 38 38 38
-1.7073 -11.6129 0.0000 38 38 38
-1.5043 -11.6506 0.0000 38 38 38
-1.3007 -11.6847 0.0000 38 38 38
-1.0965 -11.7152 0.0000 38 38 38
-0.8918 -11.7421 0.0000 38 38 38
-0.6866 -11.7655 0.0000 38 38 38
-0.4811 -11.7853 0.0000 38 38 38
-0.2752 -11.8015 0.0000 38 38 38
-0.0692 -11.8141 0.0000 38 38 38
0.1371 -11.8231 0.0000 38 38 38
0.3435 -11.8285 0.0000 38 38 38
0.5500 -11.8303 0.0000 38 38 38
0.7565 -11.8285 0.0000 38 38 38
0.9629 -11.8231 0.0000 38 38 38
1.1692 -11.8141 0.0000 38 38 38
1.3752 -11.8015 0.0000 38 38 38
1.5811 -11.7853 0.0000 38 38 38
1.7866 -11.7655 0.0000 38 38 38
1.9918 -11.7421 0.0000 38 38 38
2.1965 -11.7152 0.0000 38 38 38
2.4007 -11.6847 0.0000 38 38 38
2.6043 -11.6506 0.0000 38 38 38
2.8073 -11.6129 0.0000 38 38 38
3.0097 -11.5718 0.0000 38 38 38
3.2112 -11.5271 0.0000 38 38 38
3.4120 -11.4789 0.0000 38 38 38
3.6119 -11.4272 0.0000 38 38 38
3.8109 -11.3720 0.0000 38 38 38
4.0088 -11.3134 0.0000 38 38 38
4.2058 -11.2513 0.0000 38 38 38
4.4016 -11.1858 0.0000 38 38 38
4.5962 -11.1169 0.0000 38 38 38
4.7896 -11.0445 0.0000 38 38 38
4.9817 -10.9689 0.0000 38 38 38
5.1725 -10.8899 0.0000 38 38 38
5.3618 -10.8075 0.0000 38 38 38
5.5497 -10.7219 0.0000 38 38 38
5.7361 -10.6330 0.0000 38 38 38
5.9208 -10.5409 0.0000 38 38 38
6.1040 -10.4455 0.0000 38 38 38
6.2854 -10.3470 0.0000 38 38 38
6.4652 -10.2453 0.0000 38 38 38
6.6431 -10.1406 0.0000 38 38 38
6.8191 -10.0327 0.0000 38 38 38
6.9932 -9.9217 0.0000 38 38 38
7.1654 -9.8078 0.0000 38 38 38
7.3356 -9.6908 0.0000 38 38 38
7.5037 -9.5709 0.0000 38 38 38
7.6697 -9.4481 0.0000 38 38 38
7.8335 -9.3224 0.0000 38 38 38
7.9951 -9.1939 0.0000 38 38 38
8.1544 -9.0625 0.0000 38 38 38
8.3114 -8.9284 0.0000 38 38 38
8.4660 -8.7916 0.0000 38 38 38
8.6182 -8.6521 0.0000 38 38 38
8.7680 -8.5100 0.0000 38 38 38
8.9153 -8.3653 0.0000 38 38 38
9.0600 -8.2180 0.0000 38 38 38
9.2021 -8.0682 0.0000 38 38 38
9.3416 -7.9160 0.0000 38 38 38
9.4784 -7.7614 0.0000 38 38 38
9.6125 -7.6044 0.0000 38 38 38
9.7439 -7.4451 0.0000 38 38 38
9.8724 -7.2835 0.0000 38 38 38
3.9026 -2.5263 0.4000 149 149 149
3.9461 -2.4674 0.4000 149 149 149
4.0490 -2.4500 0.3961 147 147 147
4.1823 -2.4500 0.3904 144 144 144
4.3227 -2.4500 0.3842 140 140 140
4.4708 -2.4500 0.3777 137 137 137
4.6275 -2.4500 0.3707 133 133 133
4.7935 -2.4500 0.3632 129 129 129
4.9699 -2.4500 0.3552 125 125 125
5.1578 -2.4500 0.3465 121 121 121
5.3584 -2.4500 0.3372 117 117 117
5.5732 -2.4500 0.3271 113 113 113
5.8040 -2.4500 0.3162 108 108 108
11.3575 -4.8118 0.0000 38 38 38
11.4399 -4.6225 0.0000 38 38 38
11.5189 -4.4317 0.0000 38 38 38
11.5945 -4.2396 0.0000 38 38 38
11.6669 -4.0462 0.0000 38 38 38
11.7358 -3.8516 0.0000 38 38 38
11.8013 -3.6558 0.0000 38 38 38
11.8634 -3.4588 0.0000 38 38 38
11.9220 -3.2609 0.0000 38 38 38
11.9772 -3.0619 0.0000 38 38 38
12.0289 -2.8620 0.0000 38 38 38
12.0771 -2.6612 0.0000 38 38 38
12.1218 -2.4597 0.0000 38 38 38
12.1629 -2.2573 0.0000 38 38 38
12.2006 -2.0543 0.0000 38 38 38
12.2347 -1.8507 0.0000 38 38 38
12.2652 -1.6465 0.0000 38 38 38
12.2921 -1.4418 0.0000 38 38 38
4.7249 -0.4388 0.4000 149 149 149
4.7319 -0.3659 0.4000 149 149 149
4.7376 -0.2928 0.4000 149 149 149
4.7421 -0.2197 0.4000 149 149 149
4.7453 -0.1465 0.4000 149 149 149
4.7472 -0.0733 0.4000 149 149 149
