<svg xmlns="http://www.w3.org/2000/svg" viewBox="0 0 1024 1024" width="1024" height="1024">
<defs>
<radialGradient id="face" cx="0.42" cy="0.38" r="0.6"><stop offset="0%" stop-color="#FFF"/><stop offset="100%" stop-color="#E0E6EE"/></radialGradient>
<radialGradient id="hi" cx="0.3" cy="0.15" r="0.45"><stop offset="0%" stop-color="#FFF" stop-opacity="0.8"/><stop offset="100%" stop-opacity="0"/></radialGradient>
<radialGradient id="pu" cx="0.36" cy="0.28" r="0.5"><stop offset="0%" stop-color="#32325A"/><stop offset="100%" stop-color="#0E0E1E"/></radialGradient>
</defs>
<rect width="1024" height="1024" rx="224" fill="url(#face)"/>
<rect width="1024" height="1024" rx="224" fill="url(#hi)" opacity="0.5"/>
<ellipse cx="380" cy="440" rx="80" ry="88" fill="#F0F2F8"/>
<ellipse cx="400" cy="438" rx="52" ry="56" fill="url(#pu)"/>
<circle cx="420" cy="414" r="20" fill="#FFF"/>
<circle cx="396" cy="458" r="7.5" fill="#FFF" opacity="0.35"/>
<ellipse cx="644" cy="440" rx="80" ry="88" fill="#F0F2F8"/>
<ellipse cx="664" cy="438" rx="52" ry="56" fill="url(#pu)"/>
<circle cx="684" cy="414" r="20" fill="#FFF"/>
<circle cx="660" cy="458" r="7.5" fill="#FFF" opacity="0.35"/>
<ellipse cx="296" cy="540" rx="40" ry="20" fill="#FFAB91" opacity="0.25"/>
<ellipse cx="728" cy="540" rx="40" ry="20" fill="#FFAB91" opacity="0.25"/>
<path d="M 440 580 Q 512 640 584 580" stroke="#58CC02" stroke-width="8" fill="none" stroke-linecap="round" opacity="0.4"/>
<rect x="0" y="0" width="1024" height="1024" rx="224" fill="none" stroke="#58CC02" stroke-width="16" stroke-opacity="0.15"/>
</svg>
